{
  "accessors": [
    {
      "bufferView": 2,
      "componentType": 5126,
      "count": 2097,
      "max": [
        74.06131744384766,
        52.77169418334961,
        60.24043273925781
      ],
      "min": [
        17.126663208007813,
        10.908164024353027,
        18.375476837158203
      ],
      "type": "VEC3"
    },
    {
      "bufferView": 2,
      "byteOffset": 25164,
      "componentType": 5126,
      "count": 2097,
      "max": [
        1.0,
        0.9968364834785461,
        0.9987511038780212
      ],
      "min": [
        -1.0,
        -0.9968364834785461,
        -0.9987511038780212
      ],
      "type": "VEC3"
    },
    {
      "bufferView": 3,
      "componentType": 5126,
      "count": 2097,
      "max": [
        0.7921568751335144,
        0.8196078538894653,
        0.9333333373069763,
        1.0
      ],
      "min": [
        0.0,
        0.0,
        0.0,
        1.0
      ],
      "type": "VEC4"
    },
    {
      "bufferView": 1,
      "componentType": 5126,
      "count": 2097,
      "max": [
        0.0,
        0.0
      ],
      "min": [
        0.0,
        0.0
      ],
      "type": "VEC2"
    },
    {
      "bufferView": 0,
      "componentType": 5125,
      "count": 9558,
      "type": "SCALAR"
    },
    {
      "bufferView": 2,
      "byteOffset": 50328,
      "componentType": 5126,
      "count": 191,
      "max": [
        36.0,
        8.0,
        75.0
      ],
      "min": [
        -35.0,
        6.0,
        -71.0
      ],
      "type": "VEC3"
    },
    {
      "bufferView": 2,
      "byteOffset": 52620,
      "componentType": 5126,
      "count": 191,
      "max": [
        1.0,
        1.0,
        1.0
      ],
      "min": [
        -1.0,
        -1.0,
        -1.0
      ],
      "type": "VEC3"
    },
    {
      "bufferView": 3,
      "byteOffset": 33552,
      "componentType": 5126,
      "count": 191,
      "max": [
        0.6666666865348816,
        0.6980392336845398,
        0.7686274647712708,
        1.0
      ],
      "min": [
        0.6666666865348816,
        0.6980392336845398,
        0.7686274647712708,
        1.0
      ],
      "type": "VEC4"
    },
    {
      "bufferView": 1,
      "byteOffset": 16776,
      "componentType": 5126,
      "count": 191,
      "max": [
        0.0,
        0.0
      ],
      "min": [
        0.0,
        0.0
      ],
      "type": "VEC2"
    },
    {
      "bufferView": 0,
      "byteOffset": 38232,
      "componentType": 5125,
      "count": 582,
      "type": "SCALAR"
    },
    {
      "bufferView": 2,
      "byteOffset": 54912,
      "componentType": 5126,
      "count": 14822,
      "max": [
        36.70000076293945,
        8.199999809265137,
        80.0
      ],
      "min": [
        -35.70000076293945,
        -0.20000000298023224,
        -76.0
      ],
      "type": "VEC3"
    },
    {
      "bufferView": 2,
      "byteOffset": 232776,
      "componentType": 5126,
      "count": 14822,
      "max": [
        1.0,
        1.0,
        1.0
      ],
      "min": [
        -1.0,
        -1.0,
        -1.0
      ],
      "type": "VEC3"
    },
    {
      "bufferView": 3,
      "byteOffset": 36608,
      "componentType": 5126,
      "count": 14822,
      "max": [
        1.0,
        1.0,
        0.9333333373069763,
        1.0
      ],
      "min": [
        0.0,
        0.0,
        0.0,
        1.0
      ],
      "type": "VEC4"
    },
    {
      "bufferView": 1,
      "byteOffset": 18304,
      "componentType": 5126,
      "count": 14822,
      "max": [
        0.0,
        0.0
      ],
      "min": [
        0.0,
        0.0
      ],
      "type": "VEC2"
    },
    {
      "bufferView": 0,
      "byteOffset": 40560,
      "componentType": 5125,
      "count": 52530,
      "type": "SCALAR"
    }
  ],
  "asset": {
    "extras": {
      "author": "koeki1234 (https://sketchfab.com/koeki1234)",
      "license": "CC-BY-NC-SA-4.0 (http://creativecommons.org/licenses/by-nc-sa/4.0/)",
      "source": "https://sketchfab.com/3d-models/galaxy-note-8-db036285009142058f38e80614fba2ce",
      "title": "Galaxy note 8"
    },
    "generator": "Sketchfab-12.68.0",
    "version": "2.0"
  },
  "bufferViews": [
    {
      "buffer": 0,
      "byteLength": 250680,
      "name": "floatBufferViews",
      "target": 34963
    },
    {
      "buffer": 0,
      "byteLength": 136880,
      "byteOffset": 250680,
      "byteStride": 8,
      "name": "floatBufferViews",
      "target": 34962
    },
    {
      "buffer": 0,
      "byteLength": 410640,
      "byteOffset": 387560,
      "byteStride": 12,
      "name": "floatBufferViews",
      "target": 34962
    },
    {
      "buffer": 0,
      "byteLength": 273760,
      "byteOffset": 798200,
      "byteStride": 16,
      "name": "floatBufferViews",
      "target": 34962
    }
  ],
  "buffers": [
    {
      "byteLength": 1071960,
      "uri": "scene.bin"
    }
  ],
  "materials": [
    {
      "doubleSided": true,
      "name": "material_0",
      "pbrMetallicRoughness": {
        "baseColorFactor": [
          0.4788319434779161,
          0.4788319434779161,
          0.4788319434779161,
          1.0
        ],
        "metallicFactor": 0.5565929878048781,
        "roughnessFactor": 0.17244664634146342
      }
    },
    {
      "doubleSided": true,
      "name": "material_1",
      "pbrMetallicRoughness": {
        "baseColorFactor": [
          0.012518225358363446,
          0.012518225358363446,
          0.012518225358363446,
          1.0
        ],
        "metallicFactor": 0.0,
        "roughnessFactor": 0.17244664634146342
      }
    },
    {
      "doubleSided": true,
      "name": "material_2",
      "pbrMetallicRoughness": {
        "baseColorFactor": [
          0.0,
          0.0,
          0.0,
          1.0
        ],
        "metallicFactor": 0.7761051829268293,
        "roughnessFactor": 0.6907393292682927
      }
    }
  ],
  "meshes": [
    {
      "name": "Object_0",
      "primitives": [
        {
          "attributes": {
            "COLOR_0": 2,
            "NORMAL": 1,
            "POSITION": 0,
            "TEXCOORD_0": 3
          },
          "indices": 4,
          "material": 2,
          "mode": 4
        }
      ]
    },
    {
      "name": "Object_1",
      "primitives": [
        {
          "attributes": {
            "COLOR_0": 7,
            "NORMAL": 6,
            "POSITION": 5,
            "TEXCOORD_0": 8
          },
          "indices": 9,
          "material": 1,
          "mode": 4
        }
      ]
    },
    {
      "name": "Object_2",
      "primitives": [
        {
          "attributes": {
            "COLOR_0": 12,
            "NORMAL": 11,
            "POSITION": 10,
            "TEXCOORD_0": 13
          },
          "indices": 14,
          "material": 0,
          "mode": 4
        }
      ]
    }
  ],
  "nodes": [
    {
      "children": [
        1
      ],
      "matrix": [
        10.102876663208008,
        0.0,
        0.0,
        0.0,
        0.0,
        2.2432892572883407e-15,
        -10.102876663208008,
        0.0,
        0.0,
        10.102876663208008,
        2.2432892572883407e-15,
        0.0,
        0.0,
        0.0,
        0.0,
        1.0
      ],
      "name": "Sketchfab_model"
    },
    {
      "children": [
        2,
        3,
        4
      ],
      "matrix": [
        1.0,
        0.0,
        0.0,
        0.0,
        0.0,
        0.0,
        1.0,
        0.0,
        0.0,
        -1.0,
        0.0,
        0.0,
        0.0,
        0.0,
        0.0,
        1.0
      ],
      "name": "currentmodel.wrl.cleaner.materialmerger.gles"
    },
    {
      "mesh": 0,
      "name": "Object_2"
    },
    {
      "mesh": 1,
      "name": "Object_3"
    },
    {
      "mesh": 2,
      "name": "Object_4"
    }
  ],
  "scene": 0,
  "scenes": [
    {
      "name": "Sketchfab_Scene",
      "nodes": [
        0
      ]
    }
  ]
}
