{
  "accessors": [
    {
      "bufferView": 2,
      "componentType": 5126,
      "count": 726,
      "max": [
        0.007867000065743923,
        -0.599498987197876,
        0.38518598675727844
      ],
      "min": [
        -0.007871000096201897,
        -0.6037790179252625,
        0.13840100169181824
      ],
      "type": "VEC3"
    },
    {
      "bufferView": 2,
      "byteOffset": 8712,
      "componentType": 5126,
      "count": 726,
      "max": [
        1.0,
        1.0,
        1.0
      ],
      "min": [
        -1.0,
        -1.0,
        -1.0
      ],
      "type": "VEC3"
    },
    {
      "bufferView": 1,
      "componentType": 5126,
      "count": 726,
      "max": [
        0.13835099339485168,
        0.07462599873542786
      ],
      "min": [
        -0.07868699729442596,
        -0.07327300310134888
      ],
      "type": "VEC2"
    },
    {
      "bufferView": 0,
      "componentType": 5125,
      "count": 1980,
      "type": "SCALAR"
    },
    {
      "bufferView": 2,
      "byteOffset": 17424,
      "componentType": 5126,
      "count": 4202,
      "max": [
        0.3440819978713989,
        0.6499980092048645,
        1.9499980211257935
      ],
      "min": [
        -0.22066299617290497,
        -0.6499990224838257,
        -0.0
      ],
      "type": "VEC3"
    },
    {
      "bufferView": 2,
      "byteOffset": 67848,
      "componentType": 5126,
      "count": 4202,
      "max": [
        1.0,
        1.0,
        1.0
      ],
      "min": [
        -1.0,
        -1.0,
        -1.0
      ],
      "type": "VEC3"
    },
    {
      "bufferView": 1,
      "byteOffset": 5808,
      "componentType": 5126,
      "count": 4202,
      "max": [
        6.485020160675049,
        19.64797592163086
      ],
      "min": [
        -14.605079650878906,
        -3.121303081512451
      ],
      "type": "VEC2"
    },
    {
      "bufferView": 0,
      "byteOffset": 7920,
      "componentType": 5125,
      "count": 14622,
      "type": "SCALAR"
    },
    {
      "bufferView": 2,
      "byteOffset": 118272,
      "componentType": 5126,
      "count": 176,
      "max": [
        0.13367299735546112,
        -0.0,
        1.9399980306625366
      ],
      "min": [
        -0.13367600739002228,
        -0.5950890183448792,
        0.9763060212135315
      ],
      "type": "VEC3"
    },
    {
      "bufferView": 2,
      "byteOffset": 120384,
      "componentType": 5126,
      "count": 176,
      "max": [
        0.9998666048049927,
        1.0,
        1.0
      ],
      "min": [
        -0.9998675584793091,
        -0.9999994039535522,
        -1.0
      ],
      "type": "VEC3"
    },
    {
      "bufferView": 1,
      "byteOffset": 39424,
      "componentType": 5126,
      "count": 176,
      "max": [
        6.091787815093994,
        9.737605094909668
      ],
      "min": [
        -6.091787815093994,
        -1.3134479522705078
      ],
      "type": "VEC2"
    },
    {
      "bufferView": 0,
      "byteOffset": 66408,
      "componentType": 5125,
      "count": 468,
      "type": "SCALAR"
    },
    {
      "bufferView": 2,
      "byteOffset": 122496,
      "componentType": 5126,
      "count": 2930,
      "max": [
        0.2056400030851364,
        0.6055999994277954,
        1.9499980211257935
      ],
      "min": [
        -0.2056400030851364,
        -0.609063982963562,
        -0.0
      ],
      "type": "VEC3"
    },
    {
      "bufferView": 2,
      "byteOffset": 157656,
      "componentType": 5126,
      "count": 2930,
      "max": [
        1.0,
        1.0,
        1.0
      ],
      "min": [
        -1.0,
        -1.0,
        -1.0
      ],
      "type": "VEC3"
    },
    {
      "bufferView": 1,
      "byteOffset": 40832,
      "componentType": 5126,
      "count": 2930,
      "max": [
        19.0861873626709,
        19.165002822875977
      ],
      "min": [
        -19.16501235961914,
        -5.915952205657959
      ],
      "type": "VEC2"
    },
    {
      "bufferView": 0,
      "byteOffset": 68280,
      "componentType": 5125,
      "count": 10656,
      "type": "SCALAR"
    },
    {
      "bufferView": 2,
      "byteOffset": 192816,
      "componentType": 5126,
      "count": 1210,
      "max": [
        0.43779200315475464,
        0.3721829950809479,
        0.10045000165700912
      ],
      "min": [
        -0.3044919967651367,
        -0.3721829950809479,
        -0.06840000301599503
      ],
      "type": "VEC3"
    },
    {
      "bufferView": 2,
      "byteOffset": 207336,
      "componentType": 5126,
      "count": 1210,
      "max": [
        1.0,
        1.0,
        1.0
      ],
      "min": [
        -1.0,
        -1.0,
        -1.0
      ],
      "type": "VEC3"
    },
    {
      "bufferView": 1,
      "byteOffset": 64272,
      "componentType": 5126,
      "count": 1210,
      "max": [
        3.6480000019073486,
        11.576504707336426
      ],
      "min": [
        -7.281469821929932,
        -11.576504707336426
      ],
      "type": "VEC2"
    },
    {
      "bufferView": 0,
      "byteOffset": 110904,
      "componentType": 5125,
      "count": 3390,
      "type": "SCALAR"
    },
    {
      "bufferView": 2,
      "byteOffset": 221856,
      "componentType": 5126,
      "count": 1216,
      "max": [
        0.21632599830627441,
        0.5602350234985352,
        1.906548023223877
      ],
      "min": [
        -0.20941099524497986,
        -0.561968982219696,
        -0.0
      ],
      "type": "VEC3"
    },
    {
      "bufferView": 2,
      "byteOffset": 236448,
      "componentType": 5126,
      "count": 1216,
      "max": [
        1.0,
        1.0,
        1.0
      ],
      "min": [
        -1.0,
        -1.0,
        -1.0
      ],
      "type": "VEC3"
    },
    {
      "bufferView": 1,
      "byteOffset": 73952,
      "componentType": 5126,
      "count": 1216,
      "max": [
        18.808738708496094,
        19.571117401123047
      ],
      "min": [
        -18.808738708496094,
        -5.8142619132995605
      ],
      "type": "VEC2"
    },
    {
      "bufferView": 0,
      "byteOffset": 124464,
      "componentType": 5125,
      "count": 4848,
      "type": "SCALAR"
    },
    {
      "bufferView": 2,
      "byteOffset": 251040,
      "componentType": 5126,
      "count": 656,
      "max": [
        0.014271999709308147,
        -0.5245000123977661,
        0.9625909924507141
      ],
      "min": [
        -0.014267999678850174,
        -0.599498987197876,
        0.8052250146865845
      ],
      "type": "VEC3"
    },
    {
      "bufferView": 2,
      "byteOffset": 258912,
      "componentType": 5126,
      "count": 656,
      "max": [
        1.0,
        1.0,
        1.0
      ],
      "min": [
        -1.0,
        -1.0,
        -1.0
      ],
      "type": "VEC3"
    },
    {
      "bufferView": 1,
      "byteOffset": 83680,
      "componentType": 5126,
      "count": 656,
      "max": [
        0.6062660217285156,
        0.800000011920929
      ],
      "min": [
        -0.2607870101928711,
        -0.3310999870300293
      ],
      "type": "VEC2"
    },
    {
      "bufferView": 0,
      "byteOffset": 143856,
      "componentType": 5125,
      "count": 1752,
      "type": "SCALAR"
    }
  ],
  "asset": {
    "extras": {
      "author": "rtql8d (https://sketchfab.com/rtql8d)",
      "license": "CC-BY-4.0 (http://creativecommons.org/licenses/by/4.0/)",
      "source": "https://sketchfab.com/3d-models/ps5-d788de3735964151a3e24fd59c0f1956",
      "title": "PS5"
    },
    "generator": "Sketchfab-12.68.0",
    "version": "2.0"
  },
  "bufferViews": [
    {
      "buffer": 0,
      "byteLength": 150864,
      "name": "floatBufferViews",
      "target": 34963
    },
    {
      "buffer": 0,
      "byteLength": 88928,
      "byteOffset": 150864,
      "byteStride": 8,
      "name": "floatBufferViews",
      "target": 34962
    },
    {
      "buffer": 0,
      "byteLength": 266784,
      "byteOffset": 239792,
      "byteStride": 12,
      "name": "floatBufferViews",
      "target": 34962
    }
  ],
  "buffers": [
    {
      "byteLength": 506576,
      "uri": "scene.bin"
    }
  ],
  "materials": [
    {
      "doubleSided": true,
      "name": "Glass_-_Heavy_Color",
      "pbrMetallicRoughness": {
        "baseColorFactor": [
          0.0,
          0.0,
          0.0,
          1.0
        ],
        "metallicFactor": 0.8,
        "roughnessFactor": 0.19999999999999996
      }
    },
    {
      "doubleSided": true,
      "name": "Plastic_-_Textured_-_Regular",
      "pbrMetallicRoughness": {
        "baseColorFactor": [
          0.8069522576692516,
          0.7991027380144088,
          0.9215818562772946,
          1.0
        ],
        "metallicFactor": 0.0,
        "roughnessFactor": 0.6
      }
    },
    {
      "doubleSided": true,
      "name": "Plastic_-_Translucent_Glossy_Blue",
      "pbrMetallicRoughness": {
        "baseColorFactor": [
          0.0,
          0.03189603307301151,
          0.4452011945162275,
          1.0
        ],
        "metallicFactor": 0.0,
        "roughnessFactor": 0.8434915419926713
      }
    },
    {
      "doubleSided": true,
      "name": "Plastic_-_Translucent_Glossy_Gray",
      "pbrMetallicRoughness": {
        "baseColorFactor": [
          0.0,
          0.0,
          0.0,
          1.0
        ],
        "metallicFactor": 0.8,
        "roughnessFactor": 0.19999999999999996
      }
    },
    {
      "doubleSided": true,
      "name": "Plastic_-_Translucent_Matte_Gray",
      "pbrMetallicRoughness": {
        "baseColorFactor": [
          0.0,
          0.0,
          0.0,
          1.0
        ],
        "metallicFactor": 0.0,
        "roughnessFactor": 0.8
      }
    },
    {
      "doubleSided": true,
      "name": "Plastic_-_Translucent_Matte_Gray_1",
      "pbrMetallicRoughness": {
        "baseColorFactor": [
          0.0,
          0.0,
          0.0,
          1.0
        ],
        "metallicFactor": 0.0,
        "roughnessFactor": 0.8
      }
    },
    {
      "doubleSided": true,
      "name": "Steel_-_Satin",
      "pbrMetallicRoughness": {
        "baseColorFactor": [
          0.1844749945,
          0.1844749945,
          0.1844749945,
          1.0
        ],
        "metallicFactor": 0.8,
        "roughnessFactor": 0.6
      }
    }
  ],
  "meshes": [
    {
      "name": "Object_0",
      "primitives": [
        {
          "attributes": {
            "NORMAL": 1,
            "POSITION": 0,
            "TEXCOORD_0": 2
          },
          "indices": 3,
          "material": 0,
          "mode": 4
        }
      ]
    },
    {
      "name": "Object_1",
      "primitives": [
        {
          "attributes": {
            "NORMAL": 5,
            "POSITION": 4,
            "TEXCOORD_0": 6
          },
          "indices": 7,
          "material": 1,
          "mode": 4
        }
      ]
    },
    {
      "name": "Object_2",
      "primitives": [
        {
          "attributes": {
            "NORMAL": 9,
            "POSITION": 8,
            "TEXCOORD_0": 10
          },
          "indices": 11,
          "material": 2,
          "mode": 4
        }
      ]
    },
    {
      "name": "Object_3",
      "primitives": [
        {
          "attributes": {
            "NORMAL": 13,
            "POSITION": 12,
            "TEXCOORD_0": 14
          },
          "indices": 15,
          "material": 3,
          "mode": 4
        }
      ]
    },
    {
      "name": "Object_4",
      "primitives": [
        {
          "attributes": {
            "NORMAL": 17,
            "POSITION": 16,
            "TEXCOORD_0": 18
          },
          "indices": 19,
          "material": 4,
          "mode": 4
        }
      ]
    },
    {
      "name": "Object_5",
      "primitives": [
        {
          "attributes": {
            "NORMAL": 21,
            "POSITION": 20,
            "TEXCOORD_0": 22
          },
          "indices": 23,
          "material": 5,
          "mode": 4
        }
      ]
    },
    {
      "name": "Object_6",
      "primitives": [
        {
          "attributes": {
            "NORMAL": 25,
            "POSITION": 24,
            "TEXCOORD_0": 26
          },
          "indices": 27,
          "material": 6,
          "mode": 4
        }
      ]
    }
  ],
  "nodes": [
    {
      "children": [
        1
      ],
      "matrix": [
        1.0,
        0.0,
        0.0,
        0.0,
        0.0,
        0.0007726514013486341,
        -0.9999997019767761,
        0.0,
        0.0,
        0.9999997019767761,
        0.0007726514013486341,
        0.0,
        0.0,
        -199.06666564941412,
        197.45321655273432,
        1.0
      ],
      "name": "Sketchfab_model"
    },
    {
      "children": [
        2,
        3,
        4,
        5,
        6,
        7,
        8
      ],
      "name": "PS5.obj.cleaner.materialmerger.gles"
    },
    {
      "mesh": 0,
      "name": "Object_2"
    },
    {
      "mesh": 1,
      "name": "Object_3"
    },
    {
      "mesh": 2,
      "name": "Object_4"
    },
    {
      "mesh": 3,
      "name": "Object_5"
    },
    {
      "mesh": 4,
      "name": "Object_6"
    },
    {
      "mesh": 5,
      "name": "Object_7"
    },
    {
      "mesh": 6,
      "name": "Object_8"
    }
  ],
  "scene": 0,
  "scenes": [
    {
      "name": "Sketchfab_Scene",
      "nodes": [
        0
      ]
    }
  ]
}
