{
  "accessors": [
    {
      "bufferView": 2,
      "componentType": 5126,
      "count": 2918,
      "max": [
        1.8515701293945313,
        0.05718386173248291,
        0.7046974301338196
      ],
      "min": [
        -1.8515701293945313,
        -1.9190354347229004,
        -0.02100580930709839
      ],
      "type": "VEC3"
    },
    {
      "bufferView": 2,
      "byteOffset": 35016,
      "componentType": 5126,
      "count": 2918,
      "max": [
        0.9999972581863403,
        0.9999995231628418,
        0.9999995231628418
      ],
      "min": [
        -0.9999972581863403,
        -0.9999668598175049,
        -1.0
      ],
      "type": "VEC3"
    },
    {
      "bufferView": 1,
      "componentType": 5126,
      "count": 2918,
      "max": [
        0.9997949004173279,
        0.9005991220474243
      ],
      "min": [
        0.00020519357349257916,
        0.00020519357349257916
      ],
      "type": "VEC2"
    },
    {
      "bufferView": 1,
      "byteOffset": 23344,
      "componentType": 5126,
      "count": 2918,
      "max": [
        0.9997949004173279,
        0.9005991220474243
      ],
      "min": [
        0.00020519357349257916,
        0.00020519357349257916
      ],
      "type": "VEC2"
    },
    {
      "bufferView": 0,
      "componentType": 5125,
      "count": 16020,
      "type": "SCALAR"
    },
    {
      "bufferView": 2,
      "byteOffset": 70032,
      "componentType": 5126,
      "count": 7173,
      "max": [
        1.8648781776428223,
        0.9880094528198242,
        0.8460261821746826
      ],
      "min": [
        -1.8649992942810059,
        -0.9973497986793518,
        0.015044450759887695
      ],
      "type": "VEC3"
    },
    {
      "bufferView": 2,
      "byteOffset": 156108,
      "componentType": 5126,
      "count": 7173,
      "max": [
        1.0,
        1.0,
        1.0
      ],
      "min": [
        -1.0,
        -1.0,
        -1.0
      ],
      "type": "VEC3"
    },
    {
      "bufferView": 1,
      "byteOffset": 46688,
      "componentType": 5126,
      "count": 7173,
      "max": [
        0.9997514486312866,
        0.9964885711669922
      ],
      "min": [
        -0.002370620146393776,
        0.00024854944786056876
      ],
      "type": "VEC2"
    },
    {
      "bufferView": 1,
      "byteOffset": 104072,
      "componentType": 5126,
      "count": 7173,
      "max": [
        0.9997514486312866,
        0.9964885711669922
      ],
      "min": [
        -0.002370620146393776,
        0.00024854944786056876
      ],
      "type": "VEC2"
    },
    {
      "bufferView": 1,
      "byteOffset": 161456,
      "componentType": 5126,
      "count": 7173,
      "max": [
        0.9997514486312866,
        0.9964885711669922
      ],
      "min": [
        -0.002370620146393776,
        0.00024854944786056876
      ],
      "type": "VEC2"
    },
    {
      "bufferView": 0,
      "byteOffset": 64080,
      "componentType": 5125,
      "count": 40068,
      "type": "SCALAR"
    },
    {
      "bufferView": 2,
      "byteOffset": 242184,
      "componentType": 5126,
      "count": 2466,
      "max": [
        0.6006203889846802,
        0.47937488555908203,
        0.3660358190536499
      ],
      "min": [
        -0.627451479434967,
        -0.5052551031112671,
        -0.5926326513290405
      ],
      "type": "VEC3"
    },
    {
      "bufferView": 2,
      "byteOffset": 271776,
      "componentType": 5126,
      "count": 2466,
      "max": [
        0.9984003901481628,
        0.9994641542434692,
        0.9996068477630615
      ],
      "min": [
        -0.9994899034500122,
        -0.9982996582984924,
        -0.9960469603538513
      ],
      "type": "VEC3"
    },
    {
      "bufferView": 3,
      "componentType": 5126,
      "count": 2466,
      "max": [
        0.9985723495483398,
        0.9999435544013977,
        0.9977771043777466,
        1.0
      ],
      "min": [
        -0.9993545413017273,
        -0.9972377419471741,
        -0.9935206770896912,
        -1.0
      ],
      "type": "VEC4"
    },
    {
      "bufferView": 1,
      "byteOffset": 218840,
      "componentType": 5126,
      "count": 2466,
      "max": [
        0.9927638173103333,
        0.9960799217224121
      ],
      "min": [
        0.00023800645431037992,
        0.00023800645431037992
      ],
      "type": "VEC2"
    },
    {
      "bufferView": 1,
      "byteOffset": 238568,
      "componentType": 5126,
      "count": 2466,
      "max": [
        0.9927638173103333,
        0.9960799217224121
      ],
      "min": [
        0.00023800645431037992,
        0.00023800645431037992
      ],
      "type": "VEC2"
    },
    {
      "bufferView": 1,
      "byteOffset": 258296,
      "componentType": 5126,
      "count": 2466,
      "max": [
        0.9927638173103333,
        0.9960799217224121
      ],
      "min": [
        0.00023800645431037992,
        0.00023800645431037992
      ],
      "type": "VEC2"
    },
    {
      "bufferView": 0,
      "byteOffset": 224352,
      "componentType": 5125,
      "count": 12918,
      "type": "SCALAR"
    },
    {
      "bufferView": 2,
      "byteOffset": 301368,
      "componentType": 5126,
      "count": 2466,
      "max": [
        0.6929217576980591,
        0.47621673345565796,
        0.3734647035598755
      ],
      "min": [
        -0.49633336067199707,
        -0.5004221200942993,
        -0.5376162528991699
      ],
      "type": "VEC3"
    },
    {
      "bufferView": 2,
      "byteOffset": 330960,
      "componentType": 5126,
      "count": 2466,
      "max": [
        0.9977277517318726,
        0.9999808073043823,
        0.9940903186798096
      ],
      "min": [
        -0.9975408315658569,
        -0.9995954036712646,
        -0.9998451471328735
      ],
      "type": "VEC3"
    },
    {
      "bufferView": 3,
      "byteOffset": 39456,
      "componentType": 5126,
      "count": 2466,
      "max": [
        0.9988756775856018,
        0.998723566532135,
        0.9969181418418884,
        1.0
      ],
      "min": [
        -0.9953137636184692,
        -0.9995561838150024,
        -0.991249144077301,
        -1.0
      ],
      "type": "VEC4"
    },
    {
      "bufferView": 1,
      "byteOffset": 278024,
      "componentType": 5126,
      "count": 2466,
      "max": [
        0.9927638173103333,
        0.9960799217224121
      ],
      "min": [
        0.00023800645431037992,
        0.00023800645431037992
      ],
      "type": "VEC2"
    },
    {
      "bufferView": 1,
      "byteOffset": 297752,
      "componentType": 5126,
      "count": 2466,
      "max": [
        0.9927638173103333,
        0.9960799217224121
      ],
      "min": [
        0.00023800645431037992,
        0.00023800645431037992
      ],
      "type": "VEC2"
    },
    {
      "bufferView": 1,
      "byteOffset": 317480,
      "componentType": 5126,
      "count": 2466,
      "max": [
        0.9927638173103333,
        0.9960799217224121
      ],
      "min": [
        0.00023800645431037992,
        0.00023800645431037992
      ],
      "type": "VEC2"
    },
    {
      "bufferView": 0,
      "byteOffset": 276024,
      "componentType": 5125,
      "count": 12918,
      "type": "SCALAR"
    }
  ],
  "asset": {
    "extras": {
      "author": "forpinik (https://sketchfab.com/forpinik)",
      "license": "CC-BY-4.0 (http://creativecommons.org/licenses/by/4.0/)",
      "source": "https://sketchfab.com/3d-models/buds-42ade15182ac4235a26b7fe4fe570a70",
      "title": "Buds"
    },
    "generator": "Sketchfab-12.65.0",
    "version": "2.0"
  },
  "bufferViews": [
    {
      "buffer": 0,
      "byteLength": 327696,
      "name": "floatBufferViews",
      "target": 34963
    },
    {
      "buffer": 0,
      "byteLength": 337208,
      "byteOffset": 327696,
      "byteStride": 8,
      "name": "floatBufferViews",
      "target": 34962
    },
    {
      "buffer": 0,
      "byteLength": 360552,
      "byteOffset": 664904,
      "byteStride": 12,
      "name": "floatBufferViews",
      "target": 34962
    },
    {
      "buffer": 0,
      "byteLength": 78912,
      "byteOffset": 1025456,
      "byteStride": 16,
      "name": "floatBufferViews",
      "target": 34962
    }
  ],
  "buffers": [
    {
      "byteLength": 1104368,
      "uri": "scene.bin"
    }
  ],
  "images": [
    {
      "uri": "textures/body_top_baseColor.png"
    },
    {
      "uri": "textures/body_top_metallicRoughness.png"
    },
    {
      "uri": "textures/body_bottom_baseColor.png"
    },
    {
      "uri": "textures/body_bottom_metallicRoughness.png"
    },
    {
      "uri": "textures/body_bottom_emissive.png"
    },
    {
      "uri": "textures/bud_l_baseColor.png"
    },
    {
      "uri": "textures/bud_l_metallicRoughness.png"
    },
    {
      "uri": "textures/bud_l_normal.png"
    },
    {
      "uri": "textures/bud_r_baseColor.png"
    },
    {
      "uri": "textures/bud_r_metallicRoughness.png"
    },
    {
      "uri": "textures/bud_r_normal.png"
    }
  ],
  "materials": [
    {
      "doubleSided": true,
      "name": "body_top",
      "pbrMetallicRoughness": {
        "baseColorTexture": {
          "index": 0
        },
        "metallicFactor": 0.0,
        "metallicRoughnessTexture": {
          "index": 1
        }
      }
    },
    {
      "doubleSided": true,
      "emissiveFactor": [
        1.0,
        1.0,
        1.0
      ],
      "emissiveTexture": {
        "index": 4
      },
      "name": "body_bottom",
      "pbrMetallicRoughness": {
        "baseColorTexture": {
          "index": 2
        },
        "metallicRoughnessTexture": {
          "index": 3
        }
      }
    },
    {
      "doubleSided": true,
      "name": "bud_l",
      "normalTexture": {
        "index": 7
      },
      "pbrMetallicRoughness": {
        "baseColorTexture": {
          "index": 5
        },
        "metallicRoughnessTexture": {
          "index": 6
        },
        "roughnessFactor": 0.8
      }
    },
    {
      "doubleSided": true,
      "name": "bud_r",
      "normalTexture": {
        "index": 10
      },
      "pbrMetallicRoughness": {
        "baseColorTexture": {
          "index": 8
        },
        "metallicRoughnessTexture": {
          "index": 9
        },
        "roughnessFactor": 0.8
      }
    }
  ],
  "meshes": [
    {
      "name": "body top_body top_0",
      "primitives": [
        {
          "attributes": {
            "NORMAL": 1,
            "POSITION": 0,
            "TEXCOORD_0": 2,
            "TEXCOORD_1": 3
          },
          "indices": 4,
          "material": 0,
          "mode": 4
        }
      ]
    },
    {
      "name": "body_body bottom_0",
      "primitives": [
        {
          "attributes": {
            "NORMAL": 6,
            "POSITION": 5,
            "TEXCOORD_0": 7,
            "TEXCOORD_1": 8,
            "TEXCOORD_2": 9
          },
          "indices": 10,
          "material": 1,
          "mode": 4
        }
      ]
    },
    {
      "name": "bud l_bud l_0",
      "primitives": [
        {
          "attributes": {
            "NORMAL": 12,
            "POSITION": 11,
            "TANGENT": 13,
            "TEXCOORD_0": 14,
            "TEXCOORD_1": 15,
            "TEXCOORD_2": 16
          },
          "indices": 17,
          "material": 2,
          "mode": 4
        }
      ]
    },
    {
      "name": "bud r_bud r_0",
      "primitives": [
        {
          "attributes": {
            "NORMAL": 19,
            "POSITION": 18,
            "TANGENT": 20,
            "TEXCOORD_0": 21,
            "TEXCOORD_1": 22,
            "TEXCOORD_2": 23
          },
          "indices": 24,
          "material": 3,
          "mode": 4
        }
      ]
    }
  ],
  "nodes": [
    {
      "children": [
        1
      ],
      "matrix": [
        1.0,
        0.0,
        0.0,
        0.0,
        0.0,
        2.220446049250313e-16,
        -1.0,
        0.0,
        0.0,
        1.0,
        2.220446049250313e-16,
        0.0,
        0.0,
        0.0,
        0.0,
        1.0
      ],
      "name": "Sketchfab_model"
    },
    {
      "children": [
        2
      ],
      "matrix": [
        1.0,
        0.0,
        0.0,
        0.0,
        0.0,
        0.0,
        1.0,
        0.0,
        0.0,
        -1.0,
        0.0,
        0.0,
        0.0,
        0.0,
        0.0,
        1.0
      ],
      "name": "c5b626ece80e46508c55744e01da8b87.fbx"
    },
    {
      "children": [
        3,
        5,
        7,
        9,
        11,
        13
      ],
      "name": "RootNode"
    },
    {
      "children": [
        4
      ],
      "matrix": [
        99.9902447713678,
        -0.10441737472338034,
        -1.3923080460023143,
        0.0,
        -2.548991893328267e-06,
        -99.71998284836188,
        7.478405351502091,
        0.0,
        -1.396217992686102,
        -7.4776752099708474,
        -99.71024733141644,
        0.0,
        0.022116769105196,
        68.50045013427734,
        -93.26516723632813,
        1.0
      ],
      "name": "body top"
    },
    {
      "mesh": 0,
      "name": "body top_body top_0"
    },
    {
      "children": [
        6
      ],
      "matrix": [
        99.99024477113026,
        1.3962180096998036,
        -5.884762210836213e-08,
        0.0,
        1.686309135731645e-07,
        -1.629130148561586e-05,
        -99.99999999999868,
        0.0,
        -1.3962182227457718,
        99.99026002843063,
        -1.6292069182169283e-05,
        0.0,
        0.9663912653923035,
        0.006747245788574219,
        0.0,
        1.0
      ],
      "name": "body"
    },
    {
      "mesh": 1,
      "name": "body_body bottom_0"
    },
    {
      "children": [
        8
      ],
      "matrix": [
        -21.89233891594965,
        -77.87898736894881,
        58.78424361423272,
        0.0,
        -93.71221593489946,
        7.39054649701032e-06,
        -34.90015164108489,
        0.0,
        27.179884491148552,
        -62.72848636252048,
        -72.98213756525547,
        0.0,
        -84.3009262084961,
        165.80018615722656,
        -2.499323272786569e-07,
        1.0
      ],
      "name": "bud l"
    },
    {
      "mesh": 2,
      "name": "bud l_bud l_0"
    },
    {
      "children": [
        10
      ],
      "matrix": [
        88.09390990240254,
        -47.3229652294459,
        -6.130964178008291e-06,
        0.0,
        -1.311089571076618e-05,
        -1.1450965620163345e-05,
        -99.9999999999985,
        0.0,
        47.32296522944448,
        88.09390990240202,
        -1.6292067961387602e-05,
        0.0,
        74.94083404541016,
        166.34645080566406,
        -1.7344268560409546,
        1.0
      ],
      "name": "bud r"
    },
    {
      "mesh": 3,
      "name": "bud r_bud r_0"
    },
    {
      "children": [
        12
      ],
      "matrix": [
        -99.99999999999875,
        -4.317274372479075e-06,
        -1.5099579909783699e-05,
        0.0,
        -4.424672758035755e-06,
        99.99746530416003,
        0.711992094964744,
        0.0,
        1.5068458529109884e-05,
        0.7119920949654034,
        -99.99746530415896,
        0.0,
        356.96044921875,
        71.74703216552734,
        3.620249032974243,
        1.0
      ],
      "name": "video 01"
    },
    {
      "name": "Object_12"
    },
    {
      "children": [
        14
      ],
      "matrix": [
        40.60580795488488,
        -63.20315225307631,
        -66.00402587330889,
        0.0,
        33.11744266435103,
        77.4942717548009,
        -53.83189423164014,
        0.0,
        85.17278025497373,
        3.0165415456693574e-05,
        52.39843487889881,
        0.0,
        -334.5246887207031,
        601.5401000976563,
        461.1479187011719,
        1.0
      ],
      "name": "photo"
    },
    {
      "name": "Object_14"
    }
  ],
  "samplers": [
    {
      "magFilter": 9729,
      "minFilter": 9987,
      "wrapS": 10497,
      "wrapT": 10497
    }
  ],
  "scene": 0,
  "scenes": [
    {
      "name": "Sketchfab_Scene",
      "nodes": [
        0
      ]
    }
  ],
  "textures": [
    {
      "sampler": 0,
      "source": 0
    },
    {
      "sampler": 0,
      "source": 1
    },
    {
      "sampler": 0,
      "source": 2
    },
    {
      "sampler": 0,
      "source": 3
    },
    {
      "sampler": 0,
      "source": 4
    },
    {
      "sampler": 0,
      "source": 5
    },
    {
      "sampler": 0,
      "source": 6
    },
    {
      "sampler": 0,
      "source": 7
    },
    {
      "sampler": 0,
      "source": 8
    },
    {
      "sampler": 0,
      "source": 9
    },
    {
      "sampler": 0,
      "source": 10
    }
  ]
}
