{
  "accessors": [
    {
      "bufferView": 2,
      "componentType": 5126,
      "count": 19072,
      "max": [
        0.011087608523666859,
        0.08344365656375885,
        5.205220077186823e-07
      ],
      "min": [
        -0.011087597347795963,
        0.010400675237178802,
        -0.0591767318546772
      ],
      "type": "VEC3"
    },
    {
      "bufferView": 2,
      "byteOffset": 228864,
      "componentType": 5126,
      "count": 19072,
      "max": [
        0.9992730021476746,
        0.9999950528144836,
        0.9999982118606567
      ],
      "min": [
        -0.9992733001708984,
        -0.9992109537124634,
        -0.9999982118606567
      ],
      "type": "VEC3"
    },
    {
      "bufferView": 3,
      "componentType": 5126,
      "count": 19072,
      "max": [
        0.999912679195404,
        0.9994957447052002,
        0.9989750385284424,
        1.0
      ],
      "min": [
        -1.0,
        -0.9996657371520996,
        -0.9996168613433838,
        -1.0
      ],
      "type": "VEC4"
    },
    {
      "bufferView": 1,
      "componentType": 5126,
      "count": 19072,
      "max": [
        0.998982846736908,
        1.8647868633270264
      ],
      "min": [
        1.9924516203584375e-10,
        -0.7395531535148621
      ],
      "type": "VEC2"
    },
    {
      "bufferView": 1,
      "byteOffset": 152576,
      "componentType": 5126,
      "count": 19072,
      "max": [
        0.998982846736908,
        1.8647868633270264
      ],
      "min": [
        1.9924516203584375e-10,
        -0.7395531535148621
      ],
      "type": "VEC2"
    },
    {
      "bufferView": 0,
      "componentType": 5125,
      "count": 76596,
      "type": "SCALAR"
    },
    {
      "bufferView": 2,
      "byteOffset": 457728,
      "componentType": 5126,
      "count": 184,
      "max": [
        0.0010578949004411697,
        0.0743531733751297,
        -0.04527347907423973
      ],
      "min": [
        -0.0010578949004411697,
        0.02319895476102829,
        -0.0591767244040966
      ],
      "type": "VEC3"
    },
    {
      "bufferView": 2,
      "byteOffset": 459936,
      "componentType": 5126,
      "count": 184,
      "max": [
        1.0,
        0.9996235370635986,
        0.6956760287284851
      ],
      "min": [
        -1.0,
        -0.9996235370635986,
        -0.6956765055656433
      ],
      "type": "VEC3"
    },
    {
      "bufferView": 1,
      "byteOffset": 305152,
      "componentType": 5126,
      "count": 184,
      "max": [
        0.9734167456626892,
        0.6626989841461182
      ],
      "min": [
        0.7273696064949036,
        0.42304185032844543
      ],
      "type": "VEC2"
    },
    {
      "bufferView": 0,
      "byteOffset": 306384,
      "componentType": 5125,
      "count": 384,
      "type": "SCALAR"
    },
    {
      "bufferView": 2,
      "byteOffset": 462144,
      "componentType": 5126,
      "count": 24163,
      "max": [
        0.023368336260318756,
        0.054102830588817596,
        0.01005583442747593
      ],
      "min": [
        -0.023000000044703484,
        -0.0015753675252199173,
        -0.05833091214299202
      ],
      "type": "VEC3"
    },
    {
      "bufferView": 2,
      "byteOffset": 752100,
      "componentType": 5126,
      "count": 24163,
      "max": [
        1.0,
        1.0,
        1.0
      ],
      "min": [
        -1.0,
        -1.0,
        -1.0
      ],
      "type": "VEC3"
    },
    {
      "bufferView": 1,
      "byteOffset": 306624,
      "componentType": 5126,
      "count": 24163,
      "max": [
        0.6622145771980286,
        1.0
      ],
      "min": [
        0.01000000536441803,
        0.0
      ],
      "type": "VEC2"
    },
    {
      "bufferView": 0,
      "byteOffset": 307920,
      "componentType": 5125,
      "count": 92820,
      "type": "SCALAR"
    }
  ],
  "asset": {
    "extras": {
      "author": "cyberreno (https://sketchfab.com/cyberreno)",
      "license": "CC-BY-4.0 (http://creativecommons.org/licenses/by/4.0/)",
      "source": "https://sketchfab.com/3d-models/samsung-gear-s3-classic-0da480196d6e498f97eccd6425ed1e10",
      "title": "Samsung Gear S3 Classic"
    },
    "generator": "Sketchfab-13.74.0",
    "version": "2.0"
  },
  "bufferViews": [
    {
      "buffer": 0,
      "byteLength": 679200,
      "name": "floatBufferViews",
      "target": 34963
    },
    {
      "buffer": 0,
      "byteLength": 499928,
      "byteOffset": 679200,
      "byteStride": 8,
      "name": "floatBufferViews",
      "target": 34962
    },
    {
      "buffer": 0,
      "byteLength": 1042056,
      "byteOffset": 1179128,
      "byteStride": 12,
      "name": "floatBufferViews",
      "target": 34962
    },
    {
      "buffer": 0,
      "byteLength": 305152,
      "byteOffset": 2221184,
      "byteStride": 16,
      "name": "floatBufferViews",
      "target": 34962
    }
  ],
  "buffers": [
    {
      "byteLength": 2526336,
      "uri": "scene.bin"
    }
  ],
  "images": [
    {
      "uri": "textures/Leather_Brown_baseColor.png"
    },
    {
      "uri": "textures/Leather_Brown_normal.png"
    }
  ],
  "materials": [
    {
      "doubleSided": true,
      "name": "material_0",
      "pbrMetallicRoughness": {
        "metallicFactor": 0.0,
        "roughnessFactor": 0.6
      }
    },
    {
      "doubleSided": true,
      "name": "Leather_Brown",
      "normalTexture": {
        "index": 1
      },
      "pbrMetallicRoughness": {
        "baseColorTexture": {
          "index": 0
        },
        "metallicFactor": 0.0,
        "roughnessFactor": 0.895455
      }
    },
    {
      "doubleSided": true,
      "name": "MetalicWatchAndDials",
      "pbrMetallicRoughness": {
        "baseColorTexture": {
          "index": 0
        },
        "metallicFactor": 0.9493362265484999,
        "roughnessFactor": 0.2544769660250393
      }
    }
  ],
  "meshes": [
    {
      "name": "Object_0",
      "primitives": [
        {
          "attributes": {
            "NORMAL": 1,
            "POSITION": 0,
            "TANGENT": 2,
            "TEXCOORD_0": 3,
            "TEXCOORD_1": 4
          },
          "indices": 5,
          "material": 1,
          "mode": 4
        }
      ]
    },
    {
      "name": "Object_1",
      "primitives": [
        {
          "attributes": {
            "NORMAL": 7,
            "POSITION": 6,
            "TEXCOORD_0": 8
          },
          "indices": 9,
          "material": 0,
          "mode": 4
        }
      ]
    },
    {
      "name": "Object_2",
      "primitives": [
        {
          "attributes": {
            "NORMAL": 11,
            "POSITION": 10,
            "TEXCOORD_0": 12
          },
          "indices": 13,
          "material": 2,
          "mode": 4
        }
      ]
    }
  ],
  "nodes": [
    {
      "children": [
        1
      ],
      "matrix": [
        1.0,
        0.0,
        0.0,
        0.0,
        0.0,
        2.220446049250313e-16,
        -1.0,
        0.0,
        0.0,
        1.0,
        2.220446049250313e-16,
        0.0,
        0.0,
        0.0,
        0.0,
        1.0
      ],
      "name": "Sketchfab_model"
    },
    {
      "children": [
        2
      ],
      "name": "root"
    },
    {
      "children": [
        3,
        6
      ],
      "matrix": [
        1.0,
        0.0,
        0.0,
        0.0,
        0.0,
        2.220446049250313e-16,
        1.0,
        0.0,
        0.0,
        -1.0,
        2.220446049250313e-16,
        0.0,
        0.0,
        0.0,
        0.0,
        1.0
      ],
      "name": "GLTF_SceneRootNode"
    },
    {
      "children": [
        4,
        5
      ],
      "matrix": [
        1.0,
        0.0,
        0.0,
        0.0,
        0.0,
        0.9778134822845459,
        0.0,
        0.0,
        0.0,
        0.0,
        1.0162373781204224,
        0.0,
        0.0,
        -0.04390149936079979,
        -0.0029682668391615152,
        1.0
      ],
      "name": "Strap_Long_5"
    },
    {
      "mesh": 0,
      "name": "Object_4"
    },
    {
      "mesh": 1,
      "name": "Object_5"
    },
    {
      "children": [
        7
      ],
      "matrix": [
        1.0,
        0.0,
        0.0,
        0.0,
        0.0,
        1.0,
        0.0,
        0.0,
        0.0,
        0.0,
        1.0,
        0.0,
        0.0,
        -0.026263730600476265,
        -0.005039268638938665,
        1.0
      ],
      "name": "Strap_Pin.001_6"
    },
    {
      "mesh": 2,
      "name": "Object_7"
    }
  ],
  "samplers": [
    {
      "magFilter": 9729,
      "minFilter": 9987,
      "wrapS": 10497,
      "wrapT": 10497
    }
  ],
  "scene": 0,
  "scenes": [
    {
      "name": "Sketchfab_Scene",
      "nodes": [
        0
      ]
    }
  ],
  "textures": [
    {
      "sampler": 0,
      "source": 0
    },
    {
      "sampler": 0,
      "source": 1
    }
  ]
}
