{
  "accessors": [
    {
      "bufferView": 2,
      "componentType": 5126,
      "count": 65532,
      "max": [
        1.0441639423370361,
        -1.5968010425567627,
        2.2159459590911865
      ],
      "min": [
        -1.3715740442276,
        -4.453742027282715,
        0.3739979863166809
      ],
      "type": "VEC3"
    },
    {
      "bufferView": 2,
      "byteOffset": 786384,
      "componentType": 5126,
      "count": 65532,
      "max": [
        0.9997113347053528,
        0.9995068907737732,
        0.9998712539672852
      ],
      "min": [
        -0.9999571442604065,
        -0.999687671661377,
        -0.9867599010467529
      ],
      "type": "VEC3"
    },
    {
      "bufferView": 1,
      "componentType": 5126,
      "count": 65532,
      "max": [
        0.9858139753341675,
        0.9118970036506653
      ],
      "min": [
        0.001057000015862286,
        0.15691199898719788
      ],
      "type": "VEC2"
    },
    {
      "bufferView": 0,
      "componentType": 5125,
      "count": 65532,
      "type": "SCALAR"
    },
    {
      "bufferView": 2,
      "byteOffset": 1572768,
      "componentType": 5126,
      "count": 65532,
      "max": [
        0.9908859729766846,
        -1.0666409730911255,
        2.016390085220337
      ],
      "min": [
        -1.5482540130615234,
        -4.43833589553833,
        0.08083999902009964
      ],
      "type": "VEC3"
    },
    {
      "bufferView": 2,
      "byteOffset": 2359152,
      "componentType": 5126,
      "count": 65532,
      "max": [
        0.9860567450523376,
        0.9999983310699463,
        0.9998424649238586
      ],
      "min": [
        -0.9999760985374451,
        -0.9995644688606262,
        -0.9049371480941772
      ],
      "type": "VEC3"
    },
    {
      "bufferView": 1,
      "byteOffset": 524256,
      "componentType": 5126,
      "count": 65532,
      "max": [
        0.9850519895553589,
        0.8408979773521423
      ],
      "min": [
        0.0009260000078938901,
        0.5624709725379944
      ],
      "type": "VEC2"
    },
    {
      "bufferView": 0,
      "byteOffset": 262128,
      "componentType": 5125,
      "count": 65532,
      "type": "SCALAR"
    },
    {
      "bufferView": 2,
      "byteOffset": 3145536,
      "componentType": 5126,
      "count": 65532,
      "max": [
        1.0049519538879395,
        -1.0770260095596313,
        1.418977975845337
      ],
      "min": [
        -1.568688988685608,
        -4.095812797546387,
        0.06671400368213654
      ],
      "type": "VEC3"
    },
    {
      "bufferView": 2,
      "byteOffset": 3931920,
      "componentType": 5126,
      "count": 65532,
      "max": [
        0.9998853802680969,
        0.99991375207901,
        0.9999931454658508
      ],
      "min": [
        -0.9999991059303284,
        -0.9997156262397766,
        -0.9139859080314636
      ],
      "type": "VEC3"
    },
    {
      "bufferView": 1,
      "byteOffset": 1048512,
      "componentType": 5126,
      "count": 65532,
      "max": [
        0.47238901257514954,
        0.9991959929466248
      ],
      "min": [
        0.004042999818921089,
        0.5363389849662781
      ],
      "type": "VEC2"
    },
    {
      "bufferView": 0,
      "byteOffset": 524256,
      "componentType": 5125,
      "count": 65532,
      "type": "SCALAR"
    },
    {
      "bufferView": 2,
      "byteOffset": 4718304,
      "componentType": 5126,
      "count": 65532,
      "max": [
        1.0159319639205933,
        -1.0948679447174072,
        2.2168219089508057
      ],
      "min": [
        -1.4183770418167114,
        -4.458695888519287,
        0.22152100503444672
      ],
      "type": "VEC3"
    },
    {
      "bufferView": 2,
      "byteOffset": 5504688,
      "componentType": 5126,
      "count": 65532,
      "max": [
        0.9999755024909973,
        0.9971028566360474,
        0.9999966621398926
      ],
      "min": [
        -0.9996814727783203,
        -0.9999862313270569,
        -0.9977056384086609
      ],
      "type": "VEC3"
    },
    {
      "bufferView": 1,
      "byteOffset": 1572768,
      "componentType": 5126,
      "count": 65532,
      "max": [
        0.8409029841423035,
        0.9992550015449524
      ],
      "min": [
        0.0008559999987483025,
        0.5008360147476196
      ],
      "type": "VEC2"
    },
    {
      "bufferView": 0,
      "byteOffset": 786384,
      "componentType": 5125,
      "count": 65532,
      "type": "SCALAR"
    },
    {
      "bufferView": 2,
      "byteOffset": 6291072,
      "componentType": 5126,
      "count": 10641,
      "max": [
        0.6253600120544434,
        -2.0720760822296143,
        2.198560953140259
      ],
      "min": [
        -1.1693769693374634,
        -3.3454511165618896,
        1.0225850343704224
      ],
      "type": "VEC3"
    },
    {
      "bufferView": 2,
      "byteOffset": 6418764,
      "componentType": 5126,
      "count": 10641,
      "max": [
        0.9951647520065308,
        0.05565199255943298,
        0.9991066455841064
      ],
      "min": [
        -0.9587766528129578,
        -0.9999721050262451,
        -0.7316299676895142
      ],
      "type": "VEC3"
    },
    {
      "bufferView": 1,
      "byteOffset": 2097024,
      "componentType": 5126,
      "count": 10641,
      "max": [
        0.8489720225334167,
        0.8536710143089294
      ],
      "min": [
        0.6996729969978333,
        0.7588850259780884
      ],
      "type": "VEC2"
    },
    {
      "bufferView": 0,
      "byteOffset": 1048512,
      "componentType": 5125,
      "count": 10641,
      "type": "SCALAR"
    }
  ],
  "asset": {
    "extras": {
      "author": "stevencmutter (https://sketchfab.com/stevencmutter)",
      "license": "CC-BY-NC-SA-4.0 (http://creativecommons.org/licenses/by-nc-sa/4.0/)",
      "source": "https://sketchfab.com/3d-models/playstation-vr-e19c7e9800e74faaa04f0cae6cd4a528",
      "title": "PlayStation VR"
    },
    "generator": "Sketchfab-12.68.0",
    "version": "2.0"
  },
  "bufferViews": [
    {
      "buffer": 0,
      "byteLength": 1091076,
      "name": "floatBufferViews",
      "target": 34963
    },
    {
      "buffer": 0,
      "byteLength": 2182152,
      "byteOffset": 1091076,
      "byteStride": 8,
      "name": "floatBufferViews",
      "target": 34962
    },
    {
      "buffer": 0,
      "byteLength": 6546456,
      "byteOffset": 3273228,
      "byteStride": 12,
      "name": "floatBufferViews",
      "target": 34962
    }
  ],
  "buffers": [
    {
      "byteLength": 9819684,
      "uri": "scene.bin"
    }
  ],
  "extensionsUsed": [
    "KHR_materials_unlit"
  ],
  "images": [
    {
      "uri": "textures/material_baseColor.png"
    }
  ],
  "materials": [
    {
      "doubleSided": true,
      "extensions": {
        "KHR_materials_unlit": {}
      },
      "name": "material",
      "pbrMetallicRoughness": {
        "baseColorTexture": {
          "index": 0
        },
        "metallicFactor": 0.0
      }
    }
  ],
  "meshes": [
    {
      "name": "Object_0",
      "primitives": [
        {
          "attributes": {
            "NORMAL": 1,
            "POSITION": 0,
            "TEXCOORD_0": 2
          },
          "indices": 3,
          "material": 0,
          "mode": 4
        }
      ]
    },
    {
      "name": "Object_1",
      "primitives": [
        {
          "attributes": {
            "NORMAL": 5,
            "POSITION": 4,
            "TEXCOORD_0": 6
          },
          "indices": 7,
          "material": 0,
          "mode": 4
        }
      ]
    },
    {
      "name": "Object_2",
      "primitives": [
        {
          "attributes": {
            "NORMAL": 9,
            "POSITION": 8,
            "TEXCOORD_0": 10
          },
          "indices": 11,
          "material": 0,
          "mode": 4
        }
      ]
    },
    {
      "name": "Object_3",
      "primitives": [
        {
          "attributes": {
            "NORMAL": 13,
            "POSITION": 12,
            "TEXCOORD_0": 14
          },
          "indices": 15,
          "material": 0,
          "mode": 4
        }
      ]
    },
    {
      "name": "Object_4",
      "primitives": [
        {
          "attributes": {
            "NORMAL": 17,
            "POSITION": 16,
            "TEXCOORD_0": 18
          },
          "indices": 19,
          "material": 0,
          "mode": 4
        }
      ]
    }
  ],
  "nodes": [
    {
      "children": [
        1
      ],
      "matrix": [
        0.10747464746236801,
        0.0,
        0.0,
        0.0,
        0.0,
        2.3864165635238524e-17,
        -0.10747464746236801,
        0.0,
        0.0,
        0.10747464746236801,
        2.3864165635238524e-17,
        0.0,
        0.0,
        0.0,
        0.0,
        1.0
      ],
      "name": "Sketchfab_model"
    },
    {
      "children": [
        2,
        3,
        4,
        5,
        6
      ],
      "name": "psvrrr.obj.cleaner.materialmerger.gles"
    },
    {
      "mesh": 0,
      "name": "Object_2"
    },
    {
      "mesh": 1,
      "name": "Object_3"
    },
    {
      "mesh": 2,
      "name": "Object_4"
    },
    {
      "mesh": 3,
      "name": "Object_5"
    },
    {
      "mesh": 4,
      "name": "Object_6"
    }
  ],
  "samplers": [
    {
      "magFilter": 9729,
      "minFilter": 9987,
      "wrapS": 10497,
      "wrapT": 10497
    }
  ],
  "scene": 0,
  "scenes": [
    {
      "name": "Sketchfab_Scene",
      "nodes": [
        0
      ]
    }
  ],
  "textures": [
    {
      "sampler": 0,
      "source": 0
    }
  ]
}
