{
  "accessors": [
    {
      "bufferView": 2,
      "componentType": 5126,
      "count": 12446,
      "max": [
        -0.02500000037252903,
        0.24750001728534698,
        0.012500000186264515
      ],
      "min": [
        -0.32500001788139343,
        0.10250000655651093,
        0.002500000176951289
      ],
      "type": "VEC3"
    },
    {
      "bufferView": 2,
      "byteOffset": 149352,
      "componentType": 5126,
      "count": 12446,
      "max": [
        1.0,
        1.0,
        0.9999999403953552
      ],
      "min": [
        -1.0,
        -1.0,
        -1.0
      ],
      "type": "VEC3"
    },
    {
      "bufferView": 0,
      "componentType": 5125,
      "count": 65520,
      "type": "SCALAR"
    },
    {
      "bufferView": 2,
      "byteOffset": 298704,
      "componentType": 5126,
      "count": 1356,
      "max": [
        -0.02500000037252903,
        0.2469855099916458,
        0.012500000186264515
      ],
      "min": [
        -0.32500001788139343,
        0.1030144989490509,
        0.008300569839775562
      ],
      "type": "VEC3"
    },
    {
      "bufferView": 2,
      "byteOffset": 314976,
      "componentType": 5126,
      "count": 1356,
      "max": [
        0.00036322858068160713,
        0.8038891553878784,
        1.0
      ],
      "min": [
        -0.00036322695086710155,
        -0.8038597702980042,
        0.5947791337966919
      ],
      "type": "VEC3"
    },
    {
      "bufferView": 1,
      "componentType": 5126,
      "count": 1356,
      "max": [
        1.0,
        1.0
      ],
      "min": [
        2.9802322387695313e-08,
        0.0
      ],
      "type": "VEC2"
    },
    {
      "bufferView": 0,
      "byteOffset": 262080,
      "componentType": 5125,
      "count": 7428,
      "type": "SCALAR"
    },
    {
      "bufferView": 2,
      "byteOffset": 331248,
      "componentType": 5126,
      "count": 1624,
      "max": [
        0.21970999240875244,
        0.14858999848365784,
        0.022326599806547165
      ],
      "min": [
        0.0,
        0.0,
        0.0
      ],
      "type": "VEC3"
    },
    {
      "bufferView": 2,
      "byteOffset": 350736,
      "componentType": 5126,
      "count": 1624,
      "max": [
        1.0,
        1.0,
        1.0
      ],
      "min": [
        -0.9999912977218628,
        -1.0,
        -1.0
      ],
      "type": "VEC3"
    },
    {
      "bufferView": 1,
      "byteOffset": 10848,
      "componentType": 5126,
      "count": 1624,
      "max": [
        0.9965869784355164,
        1.9916107654571533
      ],
      "min": [
        0.012514220550656319,
        1.010067105293274
      ],
      "type": "VEC2"
    },
    {
      "bufferView": 0,
      "byteOffset": 291792,
      "componentType": 5125,
      "count": 4332,
      "type": "SCALAR"
    },
    {
      "bufferView": 2,
      "byteOffset": 370224,
      "componentType": 5126,
      "count": 28,
      "max": [
        0.05587992072105408,
        0.04800600931048393,
        0.013121679425239563
      ],
      "min": [
        0.036322008818387985,
        0.0002540542627684772,
        -1.2402438187564258e-05
      ],
      "type": "VEC3"
    },
    {
      "bufferView": 2,
      "byteOffset": 370560,
      "componentType": 5126,
      "count": 28,
      "max": [
        1.0,
        1.0,
        1.0
      ],
      "min": [
        -0.9999858140945435,
        -1.0,
        -1.0
      ],
      "type": "VEC3"
    },
    {
      "bufferView": 1,
      "byteOffset": 23840,
      "componentType": 5126,
      "count": 28,
      "max": [
        0.44680851697921753,
        1.9546828269958496
      ],
      "min": [
        0.2978723347187042,
        1.3867069482803345
      ],
      "type": "VEC2"
    },
    {
      "bufferView": 0,
      "byteOffset": 309120,
      "componentType": 5125,
      "count": 48,
      "type": "SCALAR"
    },
    {
      "bufferView": 2,
      "byteOffset": 370896,
      "componentType": 5126,
      "count": 28,
      "max": [
        0.12623803317546844,
        0.07874003052711487,
        0.013121679425239563
      ],
      "min": [
        0.10667992383241653,
        0.0002540542627684772,
        -1.2402440916048363e-05
      ],
      "type": "VEC3"
    },
    {
      "bufferView": 2,
      "byteOffset": 371232,
      "componentType": 5126,
      "count": 28,
      "max": [
        1.0,
        1.0,
        1.0
      ],
      "min": [
        -1.0,
        -1.0,
        -1.0
      ],
      "type": "VEC3"
    },
    {
      "bufferView": 1,
      "byteOffset": 24064,
      "componentType": 5126,
      "count": 28,
      "max": [
        0.9825919270515442,
        1.9546828269958496
      ],
      "min": [
        0.8336557149887085,
        1.0211480855941772
      ],
      "type": "VEC2"
    },
    {
      "bufferView": 0,
      "byteOffset": 309312,
      "componentType": 5125,
      "count": 48,
      "type": "SCALAR"
    },
    {
      "bufferView": 2,
      "byteOffset": 371568,
      "componentType": 5126,
      "count": 96,
      "max": [
        0.09245598316192627,
        0.07899399101734161,
        0.013121679425239563
      ],
      "min": [
        0.0,
        1.2222010513027182e-13,
        -1.2402440006553661e-05
      ],
      "type": "VEC3"
    },
    {
      "bufferView": 2,
      "byteOffset": 372720,
      "componentType": 5126,
      "count": 96,
      "max": [
        1.0,
        0.9999999403953552,
        1.0
      ],
      "min": [
        -1.0,
        -0.9999957084655762,
        -1.0
      ],
      "type": "VEC3"
    },
    {
      "bufferView": 1,
      "byteOffset": 24288,
      "componentType": 5126,
      "count": 96,
      "max": [
        0.7253385186195374,
        1.9577038288116455
      ],
      "min": [
        0.021276596933603287,
        1.0181268453598022
      ],
      "type": "VEC2"
    },
    {
      "bufferView": 0,
      "byteOffset": 309504,
      "componentType": 5125,
      "count": 240,
      "type": "SCALAR"
    }
  ],
  "asset": {
    "extras": {
      "author": "Sangam (https://sketchfab.com/sangambro91)",
      "license": "CC-BY-4.0 (http://creativecommons.org/licenses/by/4.0/)",
      "source": "https://sketchfab.com/3d-models/xiaomi-mi-11-pro-95745b7868604ddfafd465c0d990f7d8",
      "title": "Xiaomi Mi 11 Pro"
    },
    "generator": "Sketchfab-12.68.0",
    "version": "2.0"
  },
  "bufferViews": [
    {
      "buffer": 0,
      "byteLength": 310464,
      "name": "floatBufferViews",
      "target": 34963
    },
    {
      "buffer": 0,
      "byteLength": 25056,
      "byteOffset": 310464,
      "byteStride": 8,
      "name": "floatBufferViews",
      "target": 34962
    },
    {
      "buffer": 0,
      "byteLength": 373872,
      "byteOffset": 335520,
      "byteStride": 12,
      "name": "floatBufferViews",
      "target": 34962
    }
  ],
  "buffers": [
    {
      "byteLength": 709392,
      "uri": "scene.bin"
    }
  ],
  "extensionsRequired": [
    "KHR_materials_pbrSpecularGlossiness"
  ],
  "extensionsUsed": [
    "KHR_materials_pbrSpecularGlossiness"
  ],
  "images": [
    {
      "uri": "textures/material_0_diffuse.png"
    },
    {
      "uri": "textures/material_1_diffuse.png"
    }
  ],
  "materials": [
    {
      "extensions": {
        "KHR_materials_pbrSpecularGlossiness": {
          "diffuseFactor": [
            0.0,
            0.0,
            0.0,
            1.0
          ],
          "glossinessFactor": 1.0,
          "specularFactor": [
            0.28692903415762677,
            0.28692903415762677,
            0.28692903415762677
          ]
        }
      },
      "name": "Metallic"
    },
    {
      "extensions": {
        "KHR_materials_pbrSpecularGlossiness": {
          "diffuseFactor": [
            1.0,
            1.0,
            1.0,
            1.0
          ],
          "diffuseTexture": {
            "index": 0
          },
          "glossinessFactor": 1.0,
          "specularFactor": [
            0.3233451980789193,
            0.3233451980789193,
            0.3233451980789193
          ]
        }
      },
      "name": "material_0"
    },
    {
      "extensions": {
        "KHR_materials_pbrSpecularGlossiness": {
          "diffuseFactor": [
            1.0,
            1.0,
            1.0,
            1.0
          ],
          "diffuseTexture": {
            "index": 1
          },
          "glossinessFactor": 1.0,
          "specularFactor": [
            0.10484821455116414,
            0.10484821455116414,
            0.10484821455116414
          ]
        }
      },
      "name": "material_1"
    },
    {
      "extensions": {
        "KHR_materials_pbrSpecularGlossiness": {
          "diffuseFactor": [
            0.0,
            0.0,
            0.0,
            1.0
          ],
          "glossinessFactor": 0.0,
          "specularFactor": [
            0.11698693585826166,
            0.11698693585826166,
            0.11698693585826166
          ]
        }
      },
      "name": "material_2"
    }
  ],
  "meshes": [
    {
      "name": "Object_0",
      "primitives": [
        {
          "attributes": {
            "NORMAL": 1,
            "POSITION": 0
          },
          "indices": 2,
          "material": 0,
          "mode": 4
        }
      ]
    },
    {
      "name": "Object_1",
      "primitives": [
        {
          "attributes": {
            "NORMAL": 4,
            "POSITION": 3,
            "TEXCOORD_0": 5
          },
          "indices": 6,
          "material": 1,
          "mode": 4
        }
      ]
    },
    {
      "name": "Object_2",
      "primitives": [
        {
          "attributes": {
            "NORMAL": 8,
            "POSITION": 7,
            "TEXCOORD_0": 9
          },
          "indices": 10,
          "material": 2,
          "mode": 4
        }
      ]
    },
    {
      "name": "Object_3",
      "primitives": [
        {
          "attributes": {
            "NORMAL": 12,
            "POSITION": 11,
            "TEXCOORD_0": 13
          },
          "indices": 14,
          "material": 3,
          "mode": 4
        }
      ]
    },
    {
      "name": "Object_4",
      "primitives": [
        {
          "attributes": {
            "NORMAL": 16,
            "POSITION": 15,
            "TEXCOORD_0": 17
          },
          "indices": 18,
          "material": 3,
          "mode": 4
        }
      ]
    },
    {
      "name": "Object_5",
      "primitives": [
        {
          "attributes": {
            "NORMAL": 20,
            "POSITION": 19,
            "TEXCOORD_0": 21
          },
          "indices": 22,
          "material": 3,
          "mode": 4
        }
      ]
    }
  ],
  "nodes": [
    {
      "children": [
        1
      ],
      "matrix": [
        1.0,
        0.0,
        0.0,
        0.0,
        0.0,
        2.220446049250313e-16,
        -1.0,
        0.0,
        0.0,
        1.0,
        2.220446049250313e-16,
        0.0,
        0.0,
        4.942404471797168e-11,
        -6.161737786668522e-14,
        1.0
      ],
      "name": "Sketchfab_model"
    },
    {
      "children": [
        2
      ],
      "name": "root"
    },
    {
      "children": [
        3
      ],
      "matrix": [
        1.0,
        0.0,
        0.0,
        0.0,
        0.0,
        2.220446049250313e-16,
        1.0,
        0.0,
        0.0,
        -1.0,
        2.220446049250313e-16,
        0.0,
        0.0,
        0.0,
        0.0,
        1.0
      ],
      "name": "GLTF_SceneRootNode"
    },
    {
      "children": [
        4,
        7,
        9,
        11,
        13
      ],
      "name": "_0"
    },
    {
      "children": [
        5,
        6
      ],
      "matrix": [
        0.9999999403953552,
        0.0,
        0.0,
        0.0,
        0.0,
        -6.71486617420669e-08,
        -1.0000001192092896,
        0.0,
        0.0,
        1.0,
        -2.598423520794313e-08,
        0.0,
        0.0,
        -0.0011706678196787834,
        7.504471710717553e-08,
        1.0
      ],
      "name": "_1"
    },
    {
      "mesh": 0,
      "name": "Object_5"
    },
    {
      "mesh": 1,
      "name": "Object_6"
    },
    {
      "children": [
        8
      ],
      "matrix": [
        -3.825740435559055e-08,
        2.3460685838472273e-08,
        0.32092610001564026,
        0.0,
        -0.320926308631897,
        -5.738746011729745e-08,
        -5.6149762173163253e-08,
        0.0,
        5.069282593694879e-08,
        -0.2834886610507965,
        2.9173875759624934e-08,
        0.0,
        -0.2700408101081848,
        0.006329304073005915,
        -0.23799745738506317,
        1.0
      ],
      "name": "_2"
    },
    {
      "mesh": 2,
      "name": "Object_8"
    },
    {
      "children": [
        10
      ],
      "matrix": [
        -9.479880702656374e-08,
        7.000267476797717e-09,
        0.09940367192029953,
        0.0,
        -0.0994037464261055,
        -1.744763977740149e-08,
        -9.183538907109323e-08,
        0.0,
        1.332616395705033e-11,
        -7.615121285198256e-05,
        8.018247524277378e-12,
        0.0,
        -0.034637290984392166,
        0.0013293076772242785,
        -0.1800353229045868,
        1.0
      ],
      "name": "_3"
    },
    {
      "mesh": 3,
      "name": "Object_10"
    },
    {
      "children": [
        12
      ],
      "matrix": [
        -9.479880702656374e-08,
        7.000267476797717e-09,
        0.09940367192029953,
        0.0,
        -0.0994037464261055,
        -1.744763977740149e-08,
        -9.183538907109323e-08,
        0.0,
        1.332616395705033e-11,
        -7.615121285198256e-05,
        8.018247524277378e-12,
        0.0,
        -0.034637290984392166,
        0.0013293076772242785,
        -0.1800353229045868,
        1.0
      ],
      "name": "_4"
    },
    {
      "mesh": 4,
      "name": "Object_12"
    },
    {
      "children": [
        14
      ],
      "matrix": [
        -9.479880702656374e-08,
        7.000267476797717e-09,
        0.09940367192029953,
        0.0,
        -0.0994037464261055,
        -1.744763977740149e-08,
        -9.183538907109323e-08,
        0.0,
        1.332616395705033e-11,
        -7.615121285198256e-05,
        8.018247524277378e-12,
        0.0,
        -0.034637290984392166,
        0.0013293076772242785,
        -0.1800353229045868,
        1.0
      ],
      "name": "_5"
    },
    {
      "mesh": 5,
      "name": "Object_14"
    }
  ],
  "samplers": [
    {
      "magFilter": 9729,
      "minFilter": 9987,
      "wrapS": 10497,
      "wrapT": 10497
    }
  ],
  "scene": 0,
  "scenes": [
    {
      "name": "Sketchfab_Scene",
      "nodes": [
        0
      ]
    }
  ],
  "textures": [
    {
      "sampler": 0,
      "source": 0
    },
    {
      "sampler": 0,
      "source": 1
    }
  ]
}
