{
  "accessors": [
    {
      "bufferView": 2,
      "componentType": 5126,
      "count": 2359,
      "max": [
        9.202747344970703,
        10.511297225952148,
        -0.09764400124549866
      ],
      "min": [
        -8.622902870178223,
        -9.300524711608887,
        -3.550726890563965
      ],
      "type": "VEC3"
    },
    {
      "bufferView": 2,
      "byteOffset": 28308,
      "componentType": 5126,
      "count": 2359,
      "max": [
        1.0,
        1.0,
        1.0
      ],
      "min": [
        -1.0,
        -0.8887640237808228,
        -1.0
      ],
      "type": "VEC3"
    },
    {
      "bufferView": 1,
      "componentType": 5126,
      "count": 2359,
      "max": [
        0.9984840154647827,
        0.9970790147781372
      ],
      "min": [
        0.0018649999983608723,
        0.005260000005364418
      ],
      "type": "VEC2"
    },
    {
      "bufferView": 1,
      "byteOffset": 18872,
      "componentType": 5126,
      "count": 2359,
      "max": [
        0.9984840154647827,
        0.9970790147781372
      ],
      "min": [
        0.0018649999983608723,
        0.005260000005364418
      ],
      "type": "VEC2"
    },
    {
      "bufferView": 1,
      "byteOffset": 37744,
      "componentType": 5126,
      "count": 2359,
      "max": [
        0.9984840154647827,
        0.9970790147781372
      ],
      "min": [
        0.0018649999983608723,
        0.005260000005364418
      ],
      "type": "VEC2"
    },
    {
      "bufferView": 0,
      "componentType": 5125,
      "count": 4476,
      "type": "SCALAR"
    },
    {
      "bufferView": 2,
      "byteOffset": 56616,
      "componentType": 5126,
      "count": 4,
      "max": [
        -1.3671000003814697,
        8.630955696105957,
        -3.4642090797424316
      ],
      "min": [
        -1.735388994216919,
        -9.084303855895996,
        -3.4642109870910645
      ],
      "type": "VEC3"
    },
    {
      "bufferView": 2,
      "byteOffset": 56664,
      "componentType": 5126,
      "count": 4,
      "max": [
        -2.7880096235138874e-13,
        1.2383479486288707e-07,
        -1.0
      ],
      "min": [
        -3.7791379184012874e-13,
        8.222174585625908e-08,
        -1.0
      ],
      "type": "VEC3"
    },
    {
      "bufferView": 1,
      "byteOffset": 56616,
      "componentType": 5126,
      "count": 4,
      "max": [
        0.45517000555992126,
        0.9926279783248901
      ],
      "min": [
        0.4347650110721588,
        0.011075999587774277
      ],
      "type": "VEC2"
    },
    {
      "bufferView": 0,
      "byteOffset": 17904,
      "componentType": 5125,
      "count": 6,
      "type": "SCALAR"
    }
  ],
  "asset": {
    "extras": {
      "author": "Akulla (https://sketchfab.com/Akula3D)",
      "license": "CC-BY-4.0 (http://creativecommons.org/licenses/by/4.0/)",
      "source": "https://sketchfab.com/3d-models/ps4-5709d878c76f4a799cd9e36eb858a06b",
      "title": "PS4"
    },
    "generator": "Sketchfab-12.65.0",
    "version": "2.0"
  },
  "bufferViews": [
    {
      "buffer": 0,
      "byteLength": 17928,
      "name": "floatBufferViews",
      "target": 34963
    },
    {
      "buffer": 0,
      "byteLength": 56648,
      "byteOffset": 17928,
      "byteStride": 8,
      "name": "floatBufferViews",
      "target": 34962
    },
    {
      "buffer": 0,
      "byteLength": 56712,
      "byteOffset": 74576,
      "byteStride": 12,
      "name": "floatBufferViews",
      "target": 34962
    }
  ],
  "buffers": [
    {
      "byteLength": 131288,
      "uri": "scene.bin"
    }
  ],
  "images": [
    {
      "uri": "textures/playstation4_baseColor.png"
    },
    {
      "uri": "textures/playstation4_metallicRoughness.png"
    }
  ],
  "materials": [
    {
      "doubleSided": true,
      "name": "playstation4",
      "pbrMetallicRoughness": {
        "baseColorTexture": {
          "index": 0
        },
        "metallicRoughnessTexture": {
          "index": 1
        }
      }
    },
    {
      "doubleSided": true,
      "emissiveFactor": [
        0.317463594145944,
        1.0,
        1.0
      ],
      "name": "ps4_light"
    }
  ],
  "meshes": [
    {
      "name": "Object_0",
      "primitives": [
        {
          "attributes": {
            "NORMAL": 1,
            "POSITION": 0,
            "TEXCOORD_0": 2,
            "TEXCOORD_1": 3,
            "TEXCOORD_2": 4
          },
          "indices": 5,
          "material": 0,
          "mode": 4
        }
      ]
    },
    {
      "name": "Object_1",
      "primitives": [
        {
          "attributes": {
            "NORMAL": 7,
            "POSITION": 6,
            "TEXCOORD_0": 8
          },
          "indices": 9,
          "material": 1,
          "mode": 4
        }
      ]
    }
  ],
  "nodes": [
    {
      "children": [
        1
      ],
      "matrix": [
        1.0,
        0.0,
        0.0,
        0.0,
        0.0,
        2.220446049250313e-16,
        -1.0,
        0.0,
        0.0,
        1.0,
        2.220446049250313e-16,
        0.0,
        0.0,
        0.0,
        0.0,
        1.0
      ],
      "name": "Sketchfab_model"
    },
    {
      "children": [
        2
      ],
      "name": "root"
    },
    {
      "children": [
        3
      ],
      "matrix": [
        1.0,
        0.0,
        0.0,
        0.0,
        0.0,
        2.220446049250313e-16,
        1.0,
        0.0,
        0.0,
        -1.0,
        2.220446049250313e-16,
        0.0,
        0.0,
        0.0,
        0.0,
        1.0
      ],
      "name": "GLTF_SceneRootNode"
    },
    {
      "children": [
        4,
        5
      ],
      "matrix": [
        1.0,
        0.0,
        0.0,
        0.0,
        0.0,
        -1.685873969314855e-07,
        0.9999999999999858,
        0.0,
        0.0,
        -0.9999999999999858,
        -1.685873969314855e-07,
        0.0,
        0.0,
        0.0,
        0.0,
        1.0
      ],
      "name": "models/unconid/ps4/PS4/PS4_0"
    },
    {
      "mesh": 0,
      "name": "Object_4"
    },
    {
      "mesh": 1,
      "name": "Object_5"
    }
  ],
  "samplers": [
    {
      "magFilter": 9729,
      "minFilter": 9987,
      "wrapS": 10497,
      "wrapT": 10497
    }
  ],
  "scene": 0,
  "scenes": [
    {
      "name": "Sketchfab_Scene",
      "nodes": [
        0
      ]
    }
  ],
  "textures": [
    {
      "sampler": 0,
      "source": 0
    },
    {
      "sampler": 0,
      "source": 1
    }
  ]
}
