{
  "accessors": [
    {
      "bufferView": 2,
      "componentType": 5126,
      "count": 4344,
      "max": [
        3.4355568885803223,
        0.10688299685716629,
        1.8167150020599365
      ],
      "min": [
        -3.4538938999176025,
        -0.0657769963145256,
        -2.369040012359619
      ],
      "type": "VEC3"
    },
    {
      "bufferView": 2,
      "byteOffset": 52128,
      "componentType": 5126,
      "count": 4344,
      "max": [
        0.9999813437461853,
        0.9999998807907104,
        1.0
      ],
      "min": [
        -1.0,
        -1.0,
        -0.9999998807907104
      ],
      "type": "VEC3"
    },
    {
      "bufferView": 1,
      "componentType": 5126,
      "count": 4344,
      "max": [
        0.9455519914627075,
        0.9618800282478333
      ],
      "min": [
        0.026650000363588333,
        0.6289370059967041
      ],
      "type": "VEC2"
    },
    {
      "bufferView": 0,
      "componentType": 5125,
      "count": 24432,
      "type": "SCALAR"
    },
    {
      "bufferView": 2,
      "byteOffset": 104256,
      "componentType": 5126,
      "count": 1137,
      "max": [
        3.3993170261383057,
        -0.046553999185562134,
        1.7990609407424927
      ],
      "min": [
        -3.4169490337371826,
        -0.063850998878479,
        -2.337110996246338
      ],
      "type": "VEC3"
    },
    {
      "bufferView": 2,
      "byteOffset": 117900,
      "componentType": 5126,
      "count": 1137,
      "max": [
        0.4867999255657196,
        -0.8008139729499817,
        0.4894821047782898
      ],
      "min": [
        -0.2324369102716446,
        -1.0,
        -0.5980380177497864
      ],
      "type": "VEC3"
    },
    {
      "bufferView": 1,
      "byteOffset": 34752,
      "componentType": 5126,
      "count": 1137,
      "max": [
        0.8689709901809692,
        0.9654809832572937
      ],
      "min": [
        0.3744930028915405,
        0.6289370059967041
      ],
      "type": "VEC2"
    },
    {
      "bufferView": 0,
      "byteOffset": 97728,
      "componentType": 5125,
      "count": 5754,
      "type": "SCALAR"
    },
    {
      "bufferView": 2,
      "byteOffset": 131544,
      "componentType": 5126,
      "count": 11942,
      "max": [
        3.457139015197754,
        -0.05212299898266792,
        -2.1949501037597656
      ],
      "min": [
        -3.4546079635620117,
        -4.25966215133667,
        -2.4578659534454346
      ],
      "type": "VEC3"
    },
    {
      "bufferView": 2,
      "byteOffset": 274848,
      "componentType": 5126,
      "count": 11942,
      "max": [
        1.0,
        1.0,
        1.0
      ],
      "min": [
        -0.9999986290931702,
        -0.9999997615814209,
        -1.0
      ],
      "type": "VEC3"
    },
    {
      "bufferView": 1,
      "byteOffset": 43848,
      "componentType": 5126,
      "count": 11942,
      "max": [
        0.9936500191688538,
        0.6060090065002441
      ],
      "min": [
        0.008844000287353992,
        0.11656499654054642
      ],
      "type": "VEC2"
    },
    {
      "bufferView": 0,
      "byteOffset": 120744,
      "componentType": 5125,
      "count": 66855,
      "type": "SCALAR"
    },
    {
      "bufferView": 2,
      "byteOffset": 418152,
      "componentType": 5126,
      "count": 4215,
      "max": [
        -3.3854289054870605,
        -0.3344219923019409,
        -2.2670249938964844
      ],
      "min": [
        -3.4148359298706055,
        -1.63742995262146,
        -2.315490961074829
      ],
      "type": "VEC3"
    },
    {
      "bufferView": 2,
      "byteOffset": 468732,
      "componentType": 5126,
      "count": 4215,
      "max": [
        1.0,
        1.0,
        1.0
      ],
      "min": [
        -1.0,
        -1.0,
        -1.0
      ],
      "type": "VEC3"
    },
    {
      "bufferView": 1,
      "byteOffset": 139384,
      "componentType": 5126,
      "count": 4215,
      "max": [
        0.5862249732017517,
        0.5808749794960022
      ],
      "min": [
        0.011974000371992588,
        0.03904400020837784
      ],
      "type": "VEC2"
    },
    {
      "bufferView": 0,
      "byteOffset": 388164,
      "componentType": 5125,
      "count": 19440,
      "type": "SCALAR"
    },
    {
      "bufferView": 2,
      "byteOffset": 519312,
      "componentType": 5126,
      "count": 126,
      "max": [
        0.02029000036418438,
        -0.04135899990797043,
        1.6616599559783936
      ],
      "min": [
        -0.02029000036418438,
        -0.049865998327732086,
        1.6210800409317017
      ],
      "type": "VEC3"
    },
    {
      "bufferView": 2,
      "byteOffset": 520824,
      "componentType": 5126,
      "count": 126,
      "max": [
        1.0,
        1.0,
        1.0
      ],
      "min": [
        -1.0,
        -1.0,
        -1.0
      ],
      "type": "VEC3"
    },
    {
      "bufferView": 1,
      "byteOffset": 173104,
      "componentType": 5126,
      "count": 126,
      "max": [
        0.65625,
        1.0
      ],
      "min": [
        0.34375,
        -0.0
      ],
      "type": "VEC2"
    },
    {
      "bufferView": 0,
      "byteOffset": 465924,
      "componentType": 5125,
      "count": 480,
      "type": "SCALAR"
    },
    {
      "bufferView": 2,
      "byteOffset": 522336,
      "componentType": 5126,
      "count": 3633,
      "max": [
        3.406733989715576,
        -0.04728500172495842,
        1.790560007095337
      ],
      "min": [
        -3.424468994140625,
        -0.2582330107688904,
        -2.4095818996429443
      ],
      "type": "VEC3"
    },
    {
      "bufferView": 2,
      "byteOffset": 565932,
      "componentType": 5126,
      "count": 3633,
      "max": [
        1.0,
        0.9834207892417908,
        0.9999998807907104
      ],
      "min": [
        -1.0,
        -0.9999995231628418,
        -1.0
      ],
      "type": "VEC3"
    },
    {
      "bufferView": 1,
      "byteOffset": 174112,
      "componentType": 5126,
      "count": 3633,
      "max": [
        0.8689709901809692,
        0.7055180072784424
      ],
      "min": [
        0.37986499071121216,
        0.24324600398540497
      ],
      "type": "VEC2"
    },
    {
      "bufferView": 0,
      "byteOffset": 467844,
      "componentType": 5125,
      "count": 20784,
      "type": "SCALAR"
    },
    {
      "bufferView": 2,
      "byteOffset": 609528,
      "componentType": 5126,
      "count": 9852,
      "max": [
        2.1974658966064453,
        -0.541487991809845,
        -2.215053081512451
      ],
      "min": [
        -3.405302047729492,
        -2.079571008682251,
        -2.3150548934936523
      ],
      "type": "VEC3"
    },
    {
      "bufferView": 2,
      "byteOffset": 727752,
      "componentType": 5126,
      "count": 9852,
      "max": [
        1.0,
        1.0,
        0.9999998807907104
      ],
      "min": [
        -1.0,
        -1.0,
        -1.0
      ],
      "type": "VEC3"
    },
    {
      "bufferView": 1,
      "byteOffset": 203176,
      "componentType": 5126,
      "count": 9852,
      "max": [
        0.5862249732017517,
        0.46060800552368164
      ],
      "min": [
        0.008562999777495861,
        0.03904400020837784
      ],
      "type": "VEC2"
    },
    {
      "bufferView": 0,
      "byteOffset": 550980,
      "componentType": 5125,
      "count": 46656,
      "type": "SCALAR"
    },
    {
      "bufferView": 2,
      "byteOffset": 845976,
      "componentType": 5126,
      "count": 9737,
      "max": [
        2.7691850662231445,
        -0.11683099716901779,
        -2.215053081512451
      ],
      "min": [
        -2.797499895095825,
        -2.4355509281158447,
        -2.4095818996429443
      ],
      "type": "VEC3"
    },
    {
      "bufferView": 2,
      "byteOffset": 962820,
      "componentType": 5126,
      "count": 9737,
      "max": [
        1.0,
        1.0,
        0.9999998807907104
      ],
      "min": [
        -1.0,
        -1.0,
        -1.0
      ],
      "type": "VEC3"
    },
    {
      "bufferView": 1,
      "byteOffset": 281992,
      "componentType": 5126,
      "count": 9737,
      "max": [
        0.6398169994354248,
        0.46060800552368164
      ],
      "min": [
        0.009233999997377396,
        0.03904400020837784
      ],
      "type": "VEC2"
    },
    {
      "bufferView": 0,
      "byteOffset": 737604,
      "componentType": 5125,
      "count": 46746,
      "type": "SCALAR"
    },
    {
      "bufferView": 2,
      "byteOffset": 1079664,
      "componentType": 5126,
      "count": 2200,
      "max": [
        2.759476900100708,
        -0.8222640156745911,
        -2.215053081512451
      ],
      "min": [
        -2.7881100177764893,
        -2.4611079692840576,
        -2.26601505279541
      ],
      "type": "VEC3"
    },
    {
      "bufferView": 2,
      "byteOffset": 1106064,
      "componentType": 5126,
      "count": 2200,
      "max": [
        1.0,
        1.0,
        0.9999998807907104
      ],
      "min": [
        -1.0,
        -1.0,
        -1.0
      ],
      "type": "VEC3"
    },
    {
      "bufferView": 1,
      "byteOffset": 359888,
      "componentType": 5126,
      "count": 2200,
      "max": [
        0.5862249732017517,
        0.44259899854660034
      ],
      "min": [
        0.010177000425755978,
        0.03904400020837784
      ],
      "type": "VEC2"
    },
    {
      "bufferView": 0,
      "byteOffset": 924588,
      "componentType": 5125,
      "count": 10368,
      "type": "SCALAR"
    }
  ],
  "asset": {
    "extras": {
      "author": "pozo3d (https://sketchfab.com/pozo3d)",
      "license": "CC-BY-4.0 (http://creativecommons.org/licenses/by/4.0/)",
      "source": "https://sketchfab.com/3d-models/mac-book-pro-37bb355b092f458b9e82aa6b30c914b6",
      "title": "Mac Book Pro"
    },
    "generator": "Sketchfab-12.68.0",
    "version": "2.0"
  },
  "bufferViews": [
    {
      "buffer": 0,
      "byteLength": 966060,
      "name": "floatBufferViews",
      "target": 34963
    },
    {
      "buffer": 0,
      "byteLength": 377488,
      "byteOffset": 966060,
      "byteStride": 8,
      "name": "floatBufferViews",
      "target": 34962
    },
    {
      "buffer": 0,
      "byteLength": 1132464,
      "byteOffset": 1343548,
      "byteStride": 12,
      "name": "floatBufferViews",
      "target": 34962
    }
  ],
  "buffers": [
    {
      "byteLength": 2476012,
      "uri": "scene.bin"
    }
  ],
  "images": [
    {
      "uri": "textures/blinn14SG_baseColor.jpeg"
    }
  ],
  "materials": [
    {
      "doubleSided": true,
      "name": "blinn11SG",
      "pbrMetallicRoughness": {
        "baseColorFactor": [
          0.2,
          0.2,
          0.2,
          1.0
        ],
        "metallicFactor": 0.0,
        "roughnessFactor": 0.6
      }
    },
    {
      "doubleSided": true,
      "name": "blinn14SG",
      "pbrMetallicRoughness": {
        "baseColorTexture": {
          "index": 0
        },
        "metallicFactor": 0.0,
        "roughnessFactor": 0.6
      }
    },
    {
      "doubleSided": true,
      "name": "blinn1SG",
      "pbrMetallicRoughness": {
        "baseColorTexture": {
          "index": 0
        },
        "metallicFactor": 0.0,
        "roughnessFactor": 0.6
      }
    },
    {
      "doubleSided": true,
      "name": "blinn21SG",
      "pbrMetallicRoughness": {
        "baseColorFactor": [
          0.0,
          0.0,
          0.0,
          1.0
        ],
        "metallicFactor": 0.0,
        "roughnessFactor": 0.6
      }
    },
    {
      "doubleSided": true,
      "name": "blinn2SG",
      "pbrMetallicRoughness": {
        "baseColorFactor": [
          0.0,
          0.0,
          0.0,
          1.0
        ],
        "metallicFactor": 0.0,
        "roughnessFactor": 0.6
      }
    },
    {
      "doubleSided": true,
      "name": "blinn4SG",
      "pbrMetallicRoughness": {
        "baseColorTexture": {
          "index": 0
        },
        "metallicFactor": 0.0,
        "roughnessFactor": 0.6
      }
    },
    {
      "doubleSided": true,
      "name": "blinn5SG",
      "pbrMetallicRoughness": {
        "baseColorTexture": {
          "index": 0
        },
        "metallicFactor": 0.0,
        "roughnessFactor": 0.6
      }
    }
  ],
  "meshes": [
    {
      "name": "Object_0",
      "primitives": [
        {
          "attributes": {
            "NORMAL": 1,
            "POSITION": 0,
            "TEXCOORD_0": 2
          },
          "indices": 3,
          "material": 1,
          "mode": 4
        }
      ]
    },
    {
      "name": "Object_1",
      "primitives": [
        {
          "attributes": {
            "NORMAL": 5,
            "POSITION": 4,
            "TEXCOORD_0": 6
          },
          "indices": 7,
          "material": 2,
          "mode": 4
        }
      ]
    },
    {
      "name": "Object_2",
      "primitives": [
        {
          "attributes": {
            "NORMAL": 9,
            "POSITION": 8,
            "TEXCOORD_0": 10
          },
          "indices": 11,
          "material": 6,
          "mode": 4
        }
      ]
    },
    {
      "name": "Object_3",
      "primitives": [
        {
          "attributes": {
            "NORMAL": 13,
            "POSITION": 12,
            "TEXCOORD_0": 14
          },
          "indices": 15,
          "material": 0,
          "mode": 4
        }
      ]
    },
    {
      "name": "Object_4",
      "primitives": [
        {
          "attributes": {
            "NORMAL": 17,
            "POSITION": 16,
            "TEXCOORD_0": 18
          },
          "indices": 19,
          "material": 3,
          "mode": 4
        }
      ]
    },
    {
      "name": "Object_5",
      "primitives": [
        {
          "attributes": {
            "NORMAL": 21,
            "POSITION": 20,
            "TEXCOORD_0": 22
          },
          "indices": 23,
          "material": 4,
          "mode": 4
        }
      ]
    },
    {
      "name": "Object_6",
      "primitives": [
        {
          "attributes": {
            "NORMAL": 25,
            "POSITION": 24,
            "TEXCOORD_0": 26
          },
          "indices": 27,
          "material": 5,
          "mode": 4
        }
      ]
    },
    {
      "name": "Object_7",
      "primitives": [
        {
          "attributes": {
            "NORMAL": 29,
            "POSITION": 28,
            "TEXCOORD_0": 30
          },
          "indices": 31,
          "material": 5,
          "mode": 4
        }
      ]
    },
    {
      "name": "Object_8",
      "primitives": [
        {
          "attributes": {
            "NORMAL": 33,
            "POSITION": 32,
            "TEXCOORD_0": 34
          },
          "indices": 35,
          "material": 5,
          "mode": 4
        }
      ]
    }
  ],
  "nodes": [
    {
      "children": [
        1
      ],
      "matrix": [
        1.0,
        0.0,
        0.0,
        0.0,
        0.0,
        2.220446049250313e-16,
        -1.0,
        0.0,
        0.0,
        1.0,
        2.220446049250313e-16,
        0.0,
        0.0,
        0.0,
        0.0,
        1.0
      ],
      "name": "Sketchfab_model"
    },
    {
      "children": [
        2,
        3,
        4,
        5,
        6,
        7,
        8,
        9,
        10
      ],
      "name": "laptop5.obj.cleaner.materialmerger.gles"
    },
    {
      "mesh": 0,
      "name": "Object_2"
    },
    {
      "mesh": 1,
      "name": "Object_3"
    },
    {
      "mesh": 2,
      "name": "Object_4"
    },
    {
      "mesh": 3,
      "name": "Object_5"
    },
    {
      "mesh": 4,
      "name": "Object_6"
    },
    {
      "mesh": 5,
      "name": "Object_7"
    },
    {
      "mesh": 6,
      "name": "Object_8"
    },
    {
      "mesh": 7,
      "name": "Object_9"
    },
    {
      "mesh": 8,
      "name": "Object_10"
    }
  ],
  "samplers": [
    {
      "magFilter": 9729,
      "minFilter": 9987,
      "wrapS": 10497,
      "wrapT": 10497
    }
  ],
  "scene": 0,
  "scenes": [
    {
      "name": "Sketchfab_Scene",
      "nodes": [
        0
      ]
    }
  ],
  "textures": [
    {
      "sampler": 0,
      "source": 0
    }
  ]
}
