{
  "accessors": [
    {
      "bufferView": 2,
      "componentType": 5126,
      "count": 326,
      "max": [
        0.5,
        2.96506404876709,
        0.4985818862915039
      ],
      "min": [
        -0.5,
        -0.5,
        -4.699660301208496
      ],
      "type": "VEC3"
    },
    {
      "bufferView": 2,
      "byteOffset": 3912,
      "componentType": 5126,
      "count": 326,
      "max": [
        1.0,
        0.999968945980072,
        0.9949585199356079
      ],
      "min": [
        -1.0,
        -0.999997079372406,
        -0.9999870657920837
      ],
      "type": "VEC3"
    },
    {
      "bufferView": 1,
      "componentType": 5126,
      "count": 326,
      "max": [
        0.9571866989135742,
        0.9834980964660645
      ],
      "min": [
        0.0019106116378679872,
        0.0019920319318771362
      ],
      "type": "VEC2"
    },
    {
      "bufferView": 0,
      "componentType": 5125,
      "count": 1137,
      "type": "SCALAR"
    },
    {
      "bufferView": 2,
      "byteOffset": 7824,
      "componentType": 5126,
      "count": 1528,
      "max": [
        0.4304589331150055,
        4.053389549255371,
        0.37116193771362305
      ],
      "min": [
        -0.42968499660491943,
        -0.018584907054901123,
        -5.011434555053711
      ],
      "type": "VEC3"
    },
    {
      "bufferView": 2,
      "byteOffset": 26160,
      "componentType": 5126,
      "count": 1528,
      "max": [
        0.9999997615814209,
        0.9999999403953552,
        0.9956005215644836
      ],
      "min": [
        -0.9999996423721313,
        -0.9943044781684875,
        -0.9999966621398926
      ],
      "type": "VEC3"
    },
    {
      "bufferView": 1,
      "byteOffset": 2608,
      "componentType": 5126,
      "count": 1528,
      "max": [
        0.7690709829330444,
        0.9980080127716064
      ],
      "min": [
        0.0019105523824691772,
        0.0019920319318771362
      ],
      "type": "VEC2"
    },
    {
      "bufferView": 0,
      "byteOffset": 4548,
      "componentType": 5125,
      "count": 5922,
      "type": "SCALAR"
    },
    {
      "bufferView": 2,
      "byteOffset": 44496,
      "componentType": 5126,
      "count": 52,
      "max": [
        0.23755094408988953,
        3.677443742752075,
        0.22079253196716309
      ],
      "min": [
        0.17729714512825012,
        0.7060920596122742,
        -0.12918758392333984
      ],
      "type": "VEC3"
    },
    {
      "bufferView": 2,
      "byteOffset": 45120,
      "componentType": 5126,
      "count": 52,
      "max": [
        0.0008835726184770465,
        0.1169896125793457,
        0.9931426644325256
      ],
      "min": [
        0.0006210274877958,
        0.11690706759691238,
        0.9931327700614929
      ],
      "type": "VEC3"
    },
    {
      "bufferView": 1,
      "byteOffset": 14832,
      "componentType": 5126,
      "count": 52,
      "max": [
        0.47346732020378113,
        0.852775514125824
      ],
      "min": [
        0.4678358733654022,
        0.5750652551651001
      ],
      "type": "VEC2"
    },
    {
      "bufferView": 0,
      "byteOffset": 28236,
      "componentType": 5125,
      "count": 216,
      "type": "SCALAR"
    },
    {
      "bufferView": 2,
      "byteOffset": 45744,
      "componentType": 5126,
      "count": 114,
      "max": [
        0.24955859780311584,
        3.6999809741973877,
        0.24947023391723633
      ],
      "min": [
        0.1651741862297058,
        0.6937846541404724,
        -0.12918758392333984
      ],
      "type": "VEC3"
    },
    {
      "bufferView": 2,
      "byteOffset": 47112,
      "componentType": 5126,
      "count": 114,
      "max": [
        0.9376806616783142,
        0.9291608929634094,
        0.763885498046875
      ],
      "min": [
        -0.9405844807624817,
        -0.7968664765357971,
        0.33729082345962524
      ],
      "type": "VEC3"
    },
    {
      "bufferView": 1,
      "byteOffset": 15248,
      "componentType": 5126,
      "count": 114,
      "max": [
        0.6971482634544373,
        0.9904661774635315
      ],
      "min": [
        0.25468504428863525,
        0.508043646812439
      ],
      "type": "VEC2"
    },
    {
      "bufferView": 0,
      "byteOffset": 29100,
      "componentType": 5125,
      "count": 360,
      "type": "SCALAR"
    },
    {
      "bufferView": 2,
      "byteOffset": 48480,
      "componentType": 5126,
      "count": 158,
      "max": [
        0.2810204327106476,
        2.745490312576294,
        -4.638955116271973
      ],
      "min": [
        -0.2729036808013916,
        0.3128741979598999,
        -4.923992156982422
      ],
      "type": "VEC3"
    },
    {
      "bufferView": 2,
      "byteOffset": 50376,
      "componentType": 5126,
      "count": 158,
      "max": [
        0.9999997019767761,
        0.9859615564346313,
        0.16697514057159424
      ],
      "min": [
        -1.0,
        -0.9859603047370911,
        -0.9940661191940308
      ],
      "type": "VEC3"
    },
    {
      "bufferView": 1,
      "byteOffset": 16160,
      "componentType": 5126,
      "count": 158,
      "max": [
        0.6863042712211609,
        0.9955920577049255
      ],
      "min": [
        0.08808234333992004,
        0.6071764826774597
      ],
      "type": "VEC2"
    },
    {
      "bufferView": 0,
      "byteOffset": 30540,
      "componentType": 5125,
      "count": 366,
      "type": "SCALAR"
    }
  ],
  "asset": {
    "extras": {
      "author": "elouisetrewartha (https://sketchfab.com/etrewartha)",
      "license": "CC-BY-NC-4.0 (http://creativecommons.org/licenses/by-nc/4.0/)",
      "source": "https://sketchfab.com/3d-models/wii-7a96a38cf0684aecb42a58d1e3b65cb9",
      "title": "Wii"
    },
    "generator": "Sketchfab-12.66.0",
    "version": "2.0"
  },
  "bufferViews": [
    {
      "buffer": 0,
      "byteLength": 32004,
      "name": "floatBufferViews",
      "target": 34963
    },
    {
      "buffer": 0,
      "byteLength": 17424,
      "byteOffset": 32004,
      "byteStride": 8,
      "name": "floatBufferViews",
      "target": 34962
    },
    {
      "buffer": 0,
      "byteLength": 52272,
      "byteOffset": 49428,
      "byteStride": 12,
      "name": "floatBufferViews",
      "target": 34962
    }
  ],
  "buffers": [
    {
      "byteLength": 101700,
      "uri": "scene.bin"
    }
  ],
  "materials": [
    {
      "doubleSided": true,
      "name": "Wii_Grey_Plastic",
      "pbrMetallicRoughness": {
        "baseColorFactor": [
          0.243,
          0.243,
          0.243,
          1.0
        ],
        "metallicFactor": 0.0,
        "roughnessFactor": 0.9394373618
      }
    },
    {
      "doubleSided": true,
      "name": "Wii_White_Plastic",
      "pbrMetallicRoughness": {
        "baseColorFactor": [
          0.629,
          0.629,
          0.629,
          1.0
        ],
        "metallicFactor": 0.0,
        "roughnessFactor": 0.9394373618
      }
    },
    {
      "doubleSided": true,
      "name": "Wii_Black",
      "pbrMetallicRoughness": {
        "baseColorFactor": [
          0.012,
          0.012,
          0.012,
          1.0
        ],
        "metallicFactor": 0.0,
        "roughnessFactor": 0.6
      }
    },
    {
      "doubleSided": true,
      "name": "Wii_Blue_Light",
      "pbrMetallicRoughness": {
        "baseColorFactor": [
          0.122,
          0.662307,
          1.0,
          1.0
        ],
        "metallicFactor": 0.0,
        "roughnessFactor": 0.8747958606
      }
    },
    {
      "doubleSided": true,
      "name": "lambert1",
      "pbrMetallicRoughness": {
        "baseColorFactor": [
          0.5,
          0.5,
          0.5,
          1.0
        ],
        "metallicFactor": 0.0,
        "roughnessFactor": 0.6
      }
    }
  ],
  "meshes": [
    {
      "name": "Wii_v1_Wii_Grey_Plastic_0",
      "primitives": [
        {
          "attributes": {
            "NORMAL": 1,
            "POSITION": 0,
            "TEXCOORD_0": 2
          },
          "indices": 3,
          "material": 0,
          "mode": 4
        }
      ]
    },
    {
      "name": "Wii_v1_Wii_White_Plastic_0",
      "primitives": [
        {
          "attributes": {
            "NORMAL": 5,
            "POSITION": 4,
            "TEXCOORD_0": 6
          },
          "indices": 7,
          "material": 1,
          "mode": 4
        }
      ]
    },
    {
      "name": "Wii_v1_Wii_Black_0",
      "primitives": [
        {
          "attributes": {
            "NORMAL": 9,
            "POSITION": 8,
            "TEXCOORD_0": 10
          },
          "indices": 11,
          "material": 2,
          "mode": 4
        }
      ]
    },
    {
      "name": "Wii_v1_Wii_Blue_Light_0",
      "primitives": [
        {
          "attributes": {
            "NORMAL": 13,
            "POSITION": 12,
            "TEXCOORD_0": 14
          },
          "indices": 15,
          "material": 3,
          "mode": 4
        }
      ]
    },
    {
      "name": "Wii_v1_lambert1_0",
      "primitives": [
        {
          "attributes": {
            "NORMAL": 17,
            "POSITION": 16,
            "TEXCOORD_0": 18
          },
          "indices": 19,
          "material": 4,
          "mode": 4
        }
      ]
    }
  ],
  "nodes": [
    {
      "children": [
        1
      ],
      "matrix": [
        1.0,
        0.0,
        0.0,
        0.0,
        0.0,
        2.220446049250313e-16,
        -1.0,
        0.0,
        0.0,
        1.0,
        2.220446049250313e-16,
        0.0,
        0.0,
        0.0,
        0.0,
        1.0
      ],
      "name": "Sketchfab_model"
    },
    {
      "children": [
        2
      ],
      "matrix": [
        1.0,
        0.0,
        0.0,
        0.0,
        0.0,
        0.0,
        1.0,
        0.0,
        0.0,
        -1.0,
        0.0,
        0.0,
        0.0,
        0.0,
        0.0,
        1.0
      ],
      "name": "15bf1ed082dd41e6967dd1d0685aff75.fbx"
    },
    {
      "children": [
        3
      ],
      "name": "RootNode"
    },
    {
      "children": [
        4,
        5,
        6,
        7,
        8
      ],
      "matrix": [
        4.249335765838623,
        0.0,
        0.0,
        0.0,
        0.0,
        3.105297565460205,
        0.0,
        0.0,
        0.0,
        0.0,
        3.8627939224243164,
        0.0,
        0.0,
        1.606541633605957,
        8.716110229492188,
        1.0
      ],
      "name": "Wii_v1"
    },
    {
      "mesh": 0,
      "name": "Wii_v1_Wii_Grey_Plastic_0"
    },
    {
      "mesh": 1,
      "name": "Wii_v1_Wii_White_Plastic_0"
    },
    {
      "mesh": 2,
      "name": "Wii_v1_Wii_Black_0"
    },
    {
      "mesh": 3,
      "name": "Wii_v1_Wii_Blue_Light_0"
    },
    {
      "mesh": 4,
      "name": "Wii_v1_lambert1_0"
    }
  ],
  "scene": 0,
  "scenes": [
    {
      "name": "Sketchfab_Scene",
      "nodes": [
        0
      ]
    }
  ]
}
